ETBookOT-Italic.ufo
<glyph name="exclam" format="1">
  <advance width="297"/>
  <unicode hex="0021"/>
  <outline>
    <contour>
      <point x="292" y="601" type="curve" smooth="yes"/>
      <point x="175" y="177" type="line" smooth="yes"/>
      <point x="168" y="164"/>
      <point x="146" y="163"/>
      <point x="146" y="179" type="curve" smooth="yes"/>
      <point x="203" y="621" type="line" smooth="yes"/>
      <point x="207" y="653"/>
      <point x="225" y="662"/>
      <point x="253" y="662" type="curve"/>
      <point x="242" y="662"/>
      <point x="259" y="662"/>
      <point x="259" y="662" type="curve" smooth="yes"/>
      <point x="287" y="662"/>
      <point x="306" y="651"/>
    </contour>
    <contour>
      <point x="184" y="49" type="curve" smooth="yes"/>
      <point x="184" y="13"/>
      <point x="161" y="-14"/>
      <point x="131" y="-14" type="curve" smooth="yes"/>
      <point x="102" y="-14"/>
      <point x="76" y="20"/>
      <point x="86" y="48" type="curve"/>
      <point x="90" y="80"/>
      <point x="112" y="103"/>
      <point x="140" y="103" type="curve" smooth="yes"/>
      <point x="166" y="103"/>
      <point x="184" y="79"/>
    </contour>
  </outline>
</glyph>
<glyph name="quotesingle" format="1">
  <advance width="223"/>
  <unicode hex="0027"/>
  <outline>
    <contour>
      <point x="252" y="512" type="curve" smooth="yes"/>
      <point x="192" y="377" type="line" smooth="yes"/>
      <point x="187" y="366"/>
      <point x="176" y="361"/>
      <point x="168" y="363" type="curve" smooth="yes"/>
      <point x="164" y="363"/>
      <point x="157" y="365"/>
      <point x="157" y="376" type="curve" smooth="yes"/>
      <point x="173" y="541"/>
      <point x="170" y="506"/>
      <point x="175" y="564" type="curve" smooth="yes"/>
      <point x="181" y="622"/>
      <point x="209" y="662"/>
      <point x="250" y="662" type="curve" smooth="yes"/>
      <point x="332" y="662"/>
      <point x="267" y="545"/>
    </contour>
  </outline>
</glyph>
<glyph name="plus" format="1">
  <advance width="679"/>
  <unicode hex="002B"/>
  <outline>
    <contour>
      <point x="609" y="301" type="line"/>
      <point x="371" y="301" type="line"/>
      <point x="371" y="60" type="line"/>
      <point x="306" y="60" type="line"/>
      <point x="306" y="301" type="line"/>
      <point x="69" y="301" type="line"/>
      <point x="69" y="365" type="line"/>
      <point x="306" y="365" type="line"/>
      <point x="306" y="608" type="line"/>
      <point x="371" y="608" type="line"/>
      <point x="371" y="365" type="line"/>
      <point x="609" y="365" type="line"/>
    </contour>
  </outline>
</glyph>
<glyph name="hyphen" format="1">
  <advance width="363"/>
  <unicode hex="002D"/>
  <outline>
    <contour>
      <point x="330" y="234" type="curve" smooth="yes"/>
      <point x="328" y="220"/>
      <point x="325" y="202"/>
      <point x="323" y="196" type="curve" smooth="yes"/>
      <point x="321" y="186"/>
      <point x="311" y="184"/>
      <point x="307" y="185" type="curve" smooth="yes"/>
      <point x="49" y="185" type="line" smooth="yes"/>
      <point x="45" y="185"/>
      <point x="41" y="198"/>
      <point x="42" y="210" type="curve" smooth="yes"/>
      <point x="44" y="220"/>
      <point x="45" y="232"/>
      <point x="47" y="236" type="curve" smooth="yes"/>
      <point x="50" y="245"/>
      <point x="53" y="250"/>
      <point x="70" y="250" type="curve" smooth="yes"/>
      <point x="316" y="250" type="line" smooth="yes"/>
      <point x="326" y="250"/>
      <point x="332" y="246"/>
    </contour>
  </outline>
</glyph>
<glyph name="zero" format="1">
  <advance width="432"/>
  <unicode hex="0030"/>
  <outline>
    <contour>
      <point x="412" y="287" type="curve" smooth="yes"/>
      <point x="412" y="221"/>
      <point x="393" y="160"/>
      <point x="356" y="110" type="curve" smooth="yes"/>
      <point x="324" y="68"/>
      <point x="270" y="24"/>
      <point x="219" y="1" type="curve" smooth="yes"/>
      <point x="196" y="-9"/>
      <point x="175" y="-16"/>
      <point x="160" y="-16" type="curve" smooth="yes"/>
      <point x="109" y="-16"/>
      <point x="60" y="73"/>
      <point x="60" y="162" type="curve" smooth="yes"/>
      <point x="60" y="254"/>
      <point x="113" y="345"/>
      <point x="201" y="407" type="curve" smooth="yes"/>
      <point x="240" y="434"/>
      <point x="284" y="454"/>
      <point x="310" y="454" type="curve" smooth="yes"/>
      <point x="361" y="454"/>
      <point x="412" y="372"/>
    </contour>
    <contour>
      <point x="331" y="273" type="curve" smooth="yes"/>
      <point x="331" y="347"/>
      <point x="296" y="397"/>
      <point x="258" y="397" type="curve" smooth="yes"/>
      <point x="201" y="397"/>
      <point x="142" y="289"/>
      <point x="142" y="159" type="curve" smooth="yes"/>
      <point x="142" y="88"/>
      <point x="174" y="38"/>
      <point x="206" y="38" type="curve" smooth="yes"/>
      <point x="268" y="38"/>
      <point x="331" y="146"/>
    </contour>
  </outline>
</glyph>
<glyph name="one" format="1">
  <advance width="380"/>
  <unicode hex="0031"/>
  <outline>
    <contour>
      <point x="320" y="448" type="curve" smooth="yes"/>
      <point x="250" y="88" type="line" smooth="yes"/>
      <point x="241" y="41"/>
      <point x="241" y="34"/>
      <point x="311" y="30" type="curve" smooth="yes"/>
      <point x="324" y="29"/>
      <point x="319" y="-4"/>
      <point x="306" y="-3" type="curve" smooth="yes"/>
      <point x="257" y="-1"/>
      <point x="142" y="-1"/>
      <point x="81" y="-3" type="curve" smooth="yes"/>
      <point x="72" y="-3"/>
      <point x="72" y="14"/>
      <point x="77" y="24" type="curve" smooth="yes"/>
      <point x="84" y="39"/>
      <point x="104" y="30"/>
      <point x="117" y="31" type="curve" smooth="yes"/>
      <point x="144" y="33"/>
      <point x="162" y="41"/>
      <point x="169" y="76" type="curve" smooth="yes"/>
      <point x="224" y="358" type="line" smooth="yes"/>
      <point x="226" y="370"/>
      <point x="231" y="382"/>
      <point x="223" y="380" type="curve" smooth="yes"/>
      <point x="156" y="350" type="line" smooth="yes"/>
      <point x="150" y="347"/>
      <point x="146" y="355"/>
      <point x="146" y="363" type="curve" smooth="yes"/>
      <point x="146" y="370"/>
      <point x="148" y="379"/>
      <point x="156" y="382" type="curve" smooth="yes"/>
      <point x="279" y="454" type="line" smooth="yes"/>
      <point x="284" y="458"/>
      <point x="294" y="460"/>
      <point x="301" y="460" type="curve" smooth="yes"/>
      <point x="310" y="460"/>
      <point x="322" y="456"/>
    </contour>
  </outline>
</glyph>
<glyph name="six" format="1">
  <advance width="463"/>
  <unicode hex="0036"/>
  <outline>
    <contour>
      <point x="484" y="640" type="curve" smooth="yes"/>
      <point x="368" y="608"/>
      <point x="260" y="520"/>
      <point x="202" y="360" type="curve" smooth="yes"/>
      <point x="198" y="350"/>
      <point x="198" y="337"/>
      <point x="206" y="346" type="curve" smooth="yes"/>
      <point x="219" y="362"/>
      <point x="233" y="377"/>
      <point x="251" y="394" type="curve" smooth="yes"/>
      <point x="288" y="430"/>
      <point x="332" y="451"/>
      <point x="347" y="451" type="curve" smooth="yes"/>
      <point x="384" y="451"/>
      <point x="437" y="388"/>
      <point x="437" y="302" type="curve" smooth="yes"/>
      <point x="437" y="152"/>
      <point x="312" y="-9"/>
      <point x="218" y="-9" type="curve" smooth="yes"/>
      <point x="132" y="-9"/>
      <point x="86" y="112"/>
      <point x="86" y="212" type="curve" smooth="yes"/>
      <point x="86" y="342"/>
      <point x="153" y="459"/>
      <point x="245" y="548" type="curve" smooth="yes"/>
      <point x="348" y="649"/>
      <point x="435" y="663"/>
      <point x="483" y="670" type="curve" smooth="yes"/>
      <point x="498" y="670"/>
      <point x="497" y="642"/>
    </contour>
    <contour>
      <point x="357" y="258" type="curve" smooth="yes"/>
      <point x="357" y="331"/>
      <point x="328" y="385"/>
      <point x="305" y="385" type="curve" smooth="yes"/>
      <point x="284" y="385"/>
      <point x="247" y="349"/>
      <point x="223" y="321" type="curve" smooth="yes"/>
      <point x="174" y="261"/>
      <point x="172" y="235"/>
      <point x="172" y="192" type="curve" smooth="yes"/>
      <point x="172" y="100"/>
      <point x="213" y="45"/>
      <point x="254" y="45" type="curve" smooth="yes"/>
      <point x="306" y="45"/>
      <point x="357" y="142"/>
    </contour>
  </outline>
</glyph>
<glyph name="eight" format="1">
  <advance width="463"/>
  <unicode hex="0038"/>
  <outline>
    <contour>
      <point x="450" y="506" type="curve" smooth="yes"/>
      <point x="450" y="473"/>
      <point x="427" y="422"/>
      <point x="323" y="357" type="curve" smooth="yes"/>
      <point x="318" y="354"/>
      <point x="315" y="350"/>
      <point x="321" y="345" type="curve" smooth="yes"/>
      <point x="352" y="314"/>
      <point x="391" y="270"/>
      <point x="391" y="201" type="curve" smooth="yes"/>
      <point x="391" y="76"/>
      <point x="249" y="-12"/>
      <point x="182" y="-12" type="curve" smooth="yes"/>
      <point x="166" y="-12"/>
      <point x="136" y="-10"/>
      <point x="94" y="48" type="curve" smooth="yes"/>
      <point x="73" y="78"/>
      <point x="57" y="115"/>
      <point x="57" y="147" type="curve" smooth="yes"/>
      <point x="57" y="229"/>
      <point x="153" y="295"/>
      <point x="205" y="327" type="curve" smooth="yes"/>
      <point x="209" y="330"/>
      <point x="212" y="337"/>
      <point x="207" y="343" type="curve" smooth="yes"/>
      <point x="183" y="370"/>
      <point x="153" y="410"/>
      <point x="153" y="450" type="curve" smooth="yes"/>
      <point x="153" y="477"/>
      <point x="160" y="513"/>
      <point x="231" y="565" type="curve" smooth="yes"/>
      <point x="241" y="572"/>
      <point x="306" y="614"/>
      <point x="342" y="614" type="curve" smooth="yes"/>
      <point x="405" y="614"/>
      <point x="450" y="543"/>
    </contour>
    <contour>
      <point x="379" y="484" type="curve" smooth="yes"/>
      <point x="379" y="528"/>
      <point x="321" y="569"/>
      <point x="299" y="569" type="curve" smooth="yes"/>
      <point x="282" y="569"/>
      <point x="222" y="540"/>
      <point x="222" y="484" type="curve" smooth="yes"/>
      <point x="222" y="443"/>
      <point x="257" y="404"/>
      <point x="286" y="376" type="curve" smooth="yes"/>
      <point x="291" y="371"/>
      <point x="297" y="377"/>
      <point x="302" y="380" type="curve" smooth="yes"/>
      <point x="338" y="405"/>
      <point x="379" y="439"/>
    </contour>
    <contour>
      <point x="329" y="162" type="curve" smooth="yes"/>
      <point x="329" y="232"/>
      <point x="277" y="280"/>
      <point x="244" y="307" type="curve" smooth="yes"/>
      <point x="240" y="310"/>
      <point x="235" y="311"/>
      <point x="229" y="307" type="curve" smooth="yes"/>
      <point x="186" y="278"/>
      <point x="128" y="233"/>
      <point x="128" y="174" type="curve" smooth="yes"/>
      <point x="128" y="119"/>
      <point x="185" y="29"/>
      <point x="219" y="29" type="curve" smooth="yes"/>
      <point x="237" y="29"/>
      <point x="329" y="73"/>
    </contour>
  </outline>
</glyph>
<glyph name="nine" format="1">
  <advance width="494"/>
  <unicode hex="0039"/>
  <outline>
    <contour>
      <point x="440" y="229" type="curve" smooth="yes"/>
      <point x="440" y="128"/>
      <point x="390" y="7"/>
      <point x="301" y="-82" type="curve" smooth="yes"/>
      <point x="229" y="-153"/>
      <point x="153" y="-188"/>
      <point x="57" y="-212" type="curve" smooth="yes"/>
      <point x="35" y="-217"/>
      <point x="37" y="-187"/>
      <point x="46" y="-182" type="curve" smooth="yes"/>
      <point x="189" y="-131"/>
      <point x="263" y="-56"/>
      <point x="314" y="61" type="curve" smooth="yes"/>
      <point x="320" y="75"/>
      <point x="321" y="87"/>
      <point x="312" y="78" type="curve" smooth="yes"/>
      <point x="277" y="43"/>
      <point x="229" y="-1"/>
      <point x="178" y="-1" type="curve" smooth="yes"/>
      <point x="125" y="-1"/>
      <point x="86" y="56"/>
      <point x="86" y="141" type="curve" smooth="yes"/>
      <point x="86" y="324"/>
      <point x="231" y="455"/>
      <point x="302" y="455" type="curve" smooth="yes"/>
      <point x="388" y="455"/>
      <point x="440" y="337"/>
    </contour>
    <contour>
      <point x="352" y="254" type="curve" smooth="yes"/>
      <point x="352" y="347"/>
      <point x="307" y="399"/>
      <point x="271" y="399" type="curve" smooth="yes"/>
      <point x="221" y="399"/>
      <point x="165" y="320"/>
      <point x="165" y="187" type="curve" smooth="yes"/>
      <point x="165" y="120"/>
      <point x="188" y="62"/>
      <point x="219" y="62" type="curve" smooth="yes"/>
      <point x="247" y="62"/>
      <point x="352" y="119"/>
    </contour>
  </outline>
</glyph>
<glyph name="question" format="1">
  <advance width="403"/>
  <unicode hex="003F"/>
  <outline>
    <contour>
      <point x="396" y="499" type="curve" smooth="yes"/>
      <point x="396" y="437"/>
      <point x="377" y="380"/>
      <point x="344" y="348" type="curve" smooth="yes"/>
      <point x="299" y="305"/>
      <point x="239" y="303"/>
      <point x="208" y="244" type="curve" smooth="yes"/>
      <point x="195" y="219"/>
      <point x="190" y="208"/>
      <point x="182" y="170" type="curve" smooth="yes"/>
      <point x="179" y="156"/>
      <point x="150" y="157"/>
      <point x="151" y="176" type="curve" smooth="yes"/>
      <point x="156" y="256"/>
      <point x="176" y="314"/>
      <point x="201" y="348" type="curve" smooth="yes"/>
      <point x="223" y="378"/>
      <point x="263" y="395"/>
      <point x="294" y="415" type="curve" smooth="yes"/>
      <point x="326" y="435"/>
      <point x="352" y="459"/>
      <point x="352" y="501" type="curve" smooth="yes"/>
      <point x="352" y="543"/>
      <point x="317" y="576"/>
      <point x="269" y="576" type="curve" smooth="yes"/>
      <point x="255" y="576"/>
      <point x="241" y="572"/>
      <point x="227" y="568" type="curve" smooth="yes"/>
      <point x="214" y="565"/>
      <point x="201" y="561"/>
      <point x="187" y="561" type="curve" smooth="yes"/>
      <point x="168" y="561"/>
      <point x="157" y="582"/>
      <point x="157" y="604" type="curve" smooth="yes"/>
      <point x="157" y="640"/>
      <point x="201" y="662"/>
      <point x="252" y="662" type="curve" smooth="yes"/>
      <point x="337" y="662"/>
      <point x="396" y="596"/>
    </contour>
    <contour>
      <point x="192" y="45" type="curve" smooth="yes"/>
      <point x="191" y="27"/>
      <point x="181" y="14"/>
      <point x="177" y="4" type="curve" smooth="yes"/>
      <point x="172" y="-6"/>
      <point x="154" y="-14"/>
      <point x="137" y="-14" type="curve" smooth="yes"/>
      <point x="102" y="-14"/>
      <point x="91" y="16"/>
      <point x="94" y="45" type="curve" smooth="yes"/>
      <point x="95" y="61"/>
      <point x="98" y="76"/>
      <point x="109" y="84" type="curve" smooth="yes"/>
      <point x="120" y="93"/>
      <point x="131" y="103"/>
      <point x="146" y="103" type="curve" smooth="yes"/>
      <point x="160" y="103"/>
      <point x="176" y="96"/>
      <point x="181" y="84" type="curve" smooth="yes"/>
      <point x="186" y="72"/>
      <point x="193" y="59"/>
    </contour>
  </outline>
</glyph>
<glyph name="A" format="1">
  <advance width="693"/>
  <unicode hex="0041"/>
  <outline>
    <contour>
      <point x="676" y="12" type="curve" smooth="yes"/>
      <point x="675" y="1"/>
      <point x="670" y="-5"/>
      <point x="658" y="-4" type="curve" smooth="yes"/>
      <point x="590" y="-1"/>
      <point x="450" y="-3"/>
      <point x="379" y="-4" type="curve" smooth="yes"/>
      <point x="364" y="-4"/>
      <point x="365" y="32"/>
      <point x="383" y="32" type="curve" smooth="yes"/>
      <point x="469" y="32"/>
      <point x="488" y="46"/>
      <point x="488" y="107" type="curve" smooth="yes"/>
      <point x="489" y="262" type="line" smooth="yes"/>
      <point x="489" y="267"/>
      <point x="475" y="275"/>
      <point x="469" y="275" type="curve" smooth="yes"/>
      <point x="415" y="278"/>
      <point x="343" y="278"/>
      <point x="295" y="275" type="curve" smooth="yes"/>
      <point x="286" y="275"/>
      <point x="274" y="269"/>
      <point x="264" y="259" type="curve" smooth="yes"/>
      <point x="149" y="104" type="line" smooth="yes"/>
      <point x="137" y="88"/>
      <point x="134" y="75"/>
      <point x="134" y="65" type="curve" smooth="yes"/>
      <point x="134" y="35"/>
      <point x="159" y="35"/>
      <point x="185" y="33" type="curve" smooth="yes"/>
      <point x="194" y="32"/>
      <point x="203" y="33"/>
      <point x="210" y="33" type="curve" smooth="yes"/>
      <point x="228" y="33"/>
      <point x="224" y="-4"/>
      <point x="206" y="-4" type="curve" smooth="yes"/>
      <point x="137" y="-3"/>
      <point x="40" y="-1"/>
      <point x="-32" y="-3" type="curve" smooth="yes"/>
      <point x="-48" y="-3"/>
      <point x="-47" y="32"/>
      <point x="-25" y="32" type="curve" smooth="yes"/>
      <point x="25" y="40"/>
      <point x="47" y="53"/>
      <point x="98" y="120" type="curve" smooth="yes"/>
      <point x="510" y="656" type="line" smooth="yes"/>
      <point x="517" y="666"/>
      <point x="579" y="670"/>
      <point x="579" y="653" type="curve" smooth="yes"/>
      <point x="585" y="83" type="line" smooth="yes"/>
      <point x="585" y="43"/>
      <point x="606" y="36"/>
      <point x="629" y="33" type="curve" smooth="yes"/>
      <point x="637" y="32"/>
      <point x="647" y="34"/>
      <point x="656" y="34" type="curve" smooth="yes"/>
      <point x="659" y="34"/>
      <point x="661" y="34"/>
      <point x="663" y="34" type="curve" smooth="yes"/>
      <point x="673" y="33"/>
      <point x="678" y="23"/>
    </contour>
    <contour>
      <point x="490" y="343" type="curve" smooth="yes"/>
      <point x="490" y="533" type="line" smooth="yes"/>
      <point x="490" y="556"/>
      <point x="472" y="538"/>
      <point x="469" y="535" type="curve" smooth="yes"/>
      <point x="424" y="478"/>
      <point x="370" y="395"/>
      <point x="332" y="347" type="curve" smooth="yes"/>
      <point x="328" y="343"/>
      <point x="330" y="328"/>
      <point x="341" y="328" type="curve" smooth="yes"/>
      <point x="378" y="330"/>
      <point x="438" y="329"/>
      <point x="470" y="328" type="curve" smooth="yes"/>
      <point x="476" y="328"/>
      <point x="490" y="331"/>
    </contour>
  </outline>
</glyph>
<glyph name="D" format="1">
  <advance width="793"/>
  <unicode hex="0044"/>
  <outline>
    <contour>
      <point x="780" y="357" type="curve" smooth="yes"/>
      <point x="780" y="155"/>
      <point x="597" y="-5"/>
      <point x="363" y="-3" type="curve" smooth="yes"/>
      <point x="272" y="-2"/>
      <point x="96" y="-1"/>
      <point x="13" y="-3" type="curve" smooth="yes"/>
      <point x="-3" y="-3"/>
      <point x="-4" y="21"/>
      <point x="6" y="32" type="curve" smooth="yes"/>
      <point x="12" y="40"/>
      <point x="25" y="40"/>
      <point x="34" y="40" type="curve" smooth="yes"/>
      <point x="39" y="40"/>
      <point x="44" y="39"/>
      <point x="53" y="40" type="curve" smooth="yes"/>
      <point x="98" y="42"/>
      <point x="107" y="51"/>
      <point x="123" y="128" type="curve" smooth="yes"/>
      <point x="209" y="530" type="line" smooth="yes"/>
      <point x="220" y="583"/>
      <point x="223" y="604"/>
      <point x="153" y="606" type="curve" smooth="yes"/>
      <point x="123" y="607" type="line" smooth="yes"/>
      <point x="104" y="608"/>
      <point x="111" y="646"/>
      <point x="128" y="646" type="curve" smooth="yes"/>
      <point x="198" y="644"/>
      <point x="323" y="645"/>
      <point x="423" y="646" type="curve" smooth="yes"/>
      <point x="637" y="647"/>
      <point x="780" y="533"/>
    </contour>
    <contour>
      <point x="672" y="363" type="curve" smooth="yes"/>
      <point x="672" y="548"/>
      <point x="521" y="614"/>
      <point x="350" y="607" type="curve" smooth="yes"/>
      <point x="339" y="607"/>
      <point x="323" y="602"/>
      <point x="318" y="588" type="curve" smooth="yes"/>
      <point x="217" y="115" type="line" smooth="yes"/>
      <point x="202" y="44"/>
      <point x="223" y="39"/>
      <point x="301" y="39" type="curve" smooth="yes"/>
      <point x="357" y="39"/>
      <point x="414" y="46"/>
      <point x="449" y="57" type="curve" smooth="yes"/>
      <point x="580" y="98"/>
      <point x="672" y="223"/>
    </contour>
  </outline>
</glyph>
<glyph name="G" format="1">
  <advance width="747"/>
  <unicode hex="0047"/>
  <outline>
    <contour>
      <point x="744" y="247" type="curve" smooth="yes"/>
      <point x="758" y="245"/>
      <point x="754" y="214"/>
      <point x="741" y="213" type="curve" smooth="yes"/>
      <point x="737" y="213"/>
      <point x="733" y="213"/>
      <point x="729" y="212" type="curve" smooth="yes"/>
      <point x="689" y="207"/>
      <point x="673" y="201"/>
      <point x="665" y="155" type="curve" smooth="yes"/>
      <point x="660" y="126"/>
      <point x="648" y="94"/>
      <point x="648" y="65" type="curve" smooth="yes"/>
      <point x="648" y="57"/>
      <point x="655" y="49"/>
      <point x="680" y="48" type="curve" smooth="yes"/>
      <point x="691" y="45"/>
      <point x="689" y="22"/>
      <point x="676" y="19" type="curve" smooth="yes"/>
      <point x="593" y="-3"/>
      <point x="488" y="-18"/>
      <point x="400" y="-18" type="curve" smooth="yes"/>
      <point x="227" y="-18"/>
      <point x="66" y="87"/>
      <point x="66" y="285" type="curve" smooth="yes"/>
      <point x="66" y="494"/>
      <point x="232" y="662"/>
      <point x="479" y="662" type="curve" smooth="yes"/>
      <point x="553" y="662"/>
      <point x="629" y="645"/>
      <point x="709" y="615" type="curve" smooth="yes"/>
      <point x="718" y="612"/>
      <point x="720" y="603"/>
      <point x="720" y="586" type="curve" smooth="yes"/>
      <point x="722" y="473" type="line"/>
      <point x="727" y="456"/>
      <point x="696" y="454"/>
      <point x="693" y="466" type="curve" smooth="yes"/>
      <point x="668" y="566"/>
      <point x="593" y="625"/>
      <point x="474" y="625" type="curve" smooth="yes"/>
      <point x="286" y="625"/>
      <point x="168" y="470"/>
      <point x="168" y="271" type="curve" smooth="yes"/>
      <point x="168" y="113"/>
      <point x="232" y="19"/>
      <point x="404" y="19" type="curve" smooth="yes"/>
      <point x="463" y="19"/>
      <point x="520" y="36"/>
      <point x="542" y="56" type="curve" smooth="yes"/>
      <point x="561" y="75"/>
      <point x="573" y="146"/>
      <point x="573" y="173" type="curve" smooth="yes"/>
      <point x="573" y="204"/>
      <point x="563" y="208"/>
      <point x="518" y="213" type="curve" smooth="yes"/>
      <point x="509" y="214" type="line" smooth="yes"/>
      <point x="491" y="218"/>
      <point x="503" y="247"/>
      <point x="515" y="247" type="curve" smooth="yes"/>
      <point x="587" y="245"/>
      <point x="687" y="245"/>
    </contour>
  </outline>
</glyph>
<glyph name="J" format="1">
  <advance width="338"/>
  <unicode hex="004A"/>
  <outline>
    <contour>
      <point x="402" y="646" type="curve" smooth="yes"/>
      <point x="420" y="646"/>
      <point x="410" y="612"/>
      <point x="398" y="610" type="curve" smooth="yes"/>
      <point x="389" y="610"/>
      <point x="379" y="610"/>
      <point x="370" y="609" type="curve" smooth="yes"/>
      <point x="329" y="605"/>
      <point x="313" y="589"/>
      <point x="302" y="529" type="curve" smooth="yes"/>
      <point x="200" y="-14" type="line" smooth="yes"/>
      <point x="182" y="-111"/>
      <point x="158" y="-158"/>
      <point x="98" y="-207" type="curve" smooth="yes"/>
      <point x="38" y="-257"/>
      <point x="-24" y="-287"/>
      <point x="-104" y="-287" type="curve" smooth="yes"/>
      <point x="-152" y="-287"/>
      <point x="-177" y="-279"/>
      <point x="-177" y="-255" type="curve" smooth="yes"/>
      <point x="-177" y="-247"/>
      <point x="-171" y="-227"/>
      <point x="-161" y="-214" type="curve" smooth="yes"/>
      <point x="-152" y="-202"/>
      <point x="-136" y="-198"/>
      <point x="-124" y="-198" type="curve" smooth="yes"/>
      <point x="-107" y="-198"/>
      <point x="-93" y="-208"/>
      <point x="-77" y="-213" type="curve" smooth="yes"/>
      <point x="-59" y="-219"/>
      <point x="-43" y="-224"/>
      <point x="-23" y="-224" type="curve" smooth="yes"/>
      <point x="25" y="-224"/>
      <point x="53" y="-200"/>
      <point x="70" y="-162" type="curve" smooth="yes"/>
      <point x="77" y="-145"/>
      <point x="81" y="-131"/>
      <point x="88" y="-95" type="curve" smooth="yes"/>
      <point x="206" y="531" type="line" smooth="yes"/>
      <point x="210" y="552"/>
      <point x="211" y="563"/>
      <point x="211" y="571" type="curve" smooth="yes"/>
      <point x="211" y="595"/>
      <point x="196" y="609"/>
      <point x="164" y="613" type="curve" smooth="yes"/>
      <point x="154" y="614"/>
      <point x="143" y="611"/>
      <point x="132" y="614" type="curve"/>
      <point x="117" y="610"/>
      <point x="115" y="631"/>
      <point x="124" y="641" type="curve" smooth="yes"/>
      <point x="127" y="644"/>
      <point x="131" y="647"/>
      <point x="136" y="647" type="curve" smooth="yes"/>
      <point x="200" y="645"/>
      <point x="333" y="644"/>
    </contour>
  </outline>
</glyph>
<glyph name="P" format="1">
  <advance width="564"/>
  <unicode hex="0050"/>
  <outline>
    <contour>
      <point x="589" y="465" type="curve" smooth="yes"/>
      <point x="589" y="369"/>
      <point x="515" y="283"/>
      <point x="413" y="259" type="curve" smooth="yes"/>
      <point x="372" y="250"/>
      <point x="304" y="242"/>
      <point x="261" y="251" type="curve" smooth="yes"/>
      <point x="248" y="257"/>
      <point x="249" y="283"/>
      <point x="267" y="281" type="curve" smooth="yes"/>
      <point x="338" y="271"/>
      <point x="411" y="298"/>
      <point x="451" y="357" type="curve" smooth="yes"/>
      <point x="475" y="392"/>
      <point x="488" y="435"/>
      <point x="488" y="479" type="curve" smooth="yes"/>
      <point x="488" y="538"/>
      <point x="461" y="583"/>
      <point x="418" y="597" type="curve" smooth="yes"/>
      <point x="379" y="610"/>
      <point x="342" y="607"/>
      <point x="301" y="607" type="curve" smooth="yes"/>
      <point x="294" y="607"/>
      <point x="284" y="605"/>
      <point x="279" y="583" type="curve" smooth="yes"/>
      <point x="180" y="114" type="line" smooth="yes"/>
      <point x="177" y="102"/>
      <point x="175" y="90"/>
      <point x="175" y="78" type="curve" smooth="yes"/>
      <point x="175" y="46"/>
      <point x="194" y="31"/>
      <point x="244" y="31" type="curve" smooth="yes"/>
      <point x="258" y="31" type="line" smooth="yes"/>
      <point x="276" y="31"/>
      <point x="267" y="-5"/>
      <point x="252" y="-3" type="curve" smooth="yes"/>
      <point x="171" y="-1"/>
      <point x="72" y="0"/>
      <point x="-11" y="-3" type="curve" smooth="yes"/>
      <point x="-25" y="-3"/>
      <point x="-19" y="30"/>
      <point x="-6" y="31" type="curve" smooth="yes"/>
      <point x="51" y="33"/>
      <point x="71" y="50"/>
      <point x="87" y="128" type="curve" smooth="yes"/>
      <point x="170" y="526" type="line" smooth="yes"/>
      <point x="174" y="547"/>
      <point x="177" y="560"/>
      <point x="177" y="569" type="curve" smooth="yes"/>
      <point x="177" y="593"/>
      <point x="157" y="610"/>
      <point x="116" y="610" type="curve"/>
      <point x="106" y="611" type="line"/>
      <point x="88" y="606"/>
      <point x="97" y="647"/>
      <point x="111" y="647" type="curve" smooth="yes"/>
      <point x="169" y="645"/>
      <point x="278" y="646"/>
      <point x="332" y="646" type="curve" smooth="yes"/>
      <point x="428" y="646"/>
      <point x="473" y="637"/>
      <point x="519" y="604" type="curve" smooth="yes"/>
      <point x="565" y="571"/>
      <point x="589" y="523"/>
    </contour>
  </outline>
</glyph>
<glyph name="T" format="1">
  <advance width="664"/>
  <unicode hex="0054"/>
  <outline>
    <contour>
      <point x="732" y="669" type="curve" smooth="yes"/>
      <point x="729" y="644"/>
      <point x="719" y="614"/>
      <point x="715" y="582" type="curve" smooth="yes"/>
      <point x="711" y="550"/>
      <point x="701" y="521"/>
      <point x="697" y="501" type="curve" smooth="yes"/>
      <point x="695" y="494"/>
      <point x="666" y="488"/>
      <point x="666" y="502" type="curve" smooth="yes"/>
      <point x="665" y="518"/>
      <point x="666" y="532"/>
      <point x="665" y="545" type="curve" smooth="yes"/>
      <point x="663" y="558"/>
      <point x="661" y="569"/>
      <point x="657" y="578" type="curve" smooth="yes"/>
      <point x="649" y="595"/>
      <point x="632" y="605"/>
      <point x="593" y="605" type="curve" smooth="yes"/>
      <point x="471" y="605" type="line" smooth="yes"/>
      <point x="463" y="604"/>
      <point x="455" y="596"/>
      <point x="453" y="585" type="curve" smooth="yes"/>
      <point x="353" y="114" type="line" smooth="yes"/>
      <point x="340" y="53"/>
      <point x="355" y="42"/>
      <point x="403" y="37" type="curve" smooth="yes"/>
      <point x="414" y="37"/>
      <point x="428" y="41"/>
      <point x="442" y="37" type="curve" smooth="yes"/>
      <point x="447" y="36"/>
      <point x="452" y="27"/>
      <point x="451" y="20" type="curve" smooth="yes"/>
      <point x="451" y="8"/>
      <point x="442" y="-5"/>
      <point x="431" y="-5" type="curve" smooth="yes"/>
      <point x="346" y="-1"/>
      <point x="224" y="-3"/>
      <point x="157" y="-4" type="curve" smooth="yes"/>
      <point x="148" y="-4"/>
      <point x="136" y="-3"/>
      <point x="136" y="8" type="curve" smooth="yes"/>
      <point x="136" y="13"/>
      <point x="138" y="18"/>
      <point x="139" y="23" type="curve" smooth="yes"/>
      <point x="142" y="32"/>
      <point x="151" y="37"/>
      <point x="161" y="37" type="curve" smooth="yes"/>
      <point x="168" y="37"/>
      <point x="173" y="35"/>
      <point x="179" y="35" type="curve" smooth="yes"/>
      <point x="229" y="39"/>
      <point x="242" y="53"/>
      <point x="256" y="116" type="curve" smooth="yes"/>
      <point x="357" y="581" type="line" smooth="yes"/>
      <point x="362" y="605"/>
      <point x="345" y="605"/>
      <point x="342" y="605" type="curve" smooth="yes"/>
      <point x="258" y="605" type="line" smooth="yes"/>
      <point x="208" y="605"/>
      <point x="180" y="601"/>
      <point x="157" y="583" type="curve" smooth="yes"/>
      <point x="134" y="564"/>
      <point x="123" y="544"/>
      <point x="103" y="499" type="curve" smooth="yes"/>
      <point x="98" y="487"/>
      <point x="67" y="494"/>
      <point x="75" y="506" type="curve"/>
      <point x="80" y="543"/>
      <point x="97" y="596"/>
      <point x="110" y="671" type="curve" smooth="yes"/>
      <point x="111" y="677"/>
      <point x="120" y="679"/>
      <point x="125" y="679" type="curve" smooth="yes"/>
      <point x="130" y="679"/>
      <point x="138" y="677"/>
      <point x="138" y="672" type="curve" smooth="yes"/>
      <point x="155" y="651"/>
      <point x="166" y="646"/>
      <point x="204" y="646" type="curve" smooth="yes"/>
      <point x="204" y="646"/>
      <point x="336" y="644"/>
      <point x="407" y="646" type="curve" smooth="yes"/>
      <point x="478" y="648"/>
      <point x="594" y="646"/>
      <point x="594" y="646" type="curve" smooth="yes"/>
      <point x="667" y="646"/>
      <point x="679" y="650"/>
      <point x="703" y="673" type="curve" smooth="yes"/>
      <point x="706" y="677"/>
      <point x="714" y="678"/>
      <point x="718" y="678" type="curve" smooth="yes"/>
      <point x="725" y="678"/>
      <point x="733" y="674"/>
    </contour>
  </outline>
</glyph>
<glyph name="Z" format="1">
  <advance width="687"/>
  <unicode hex="005A"/>
  <outline>
    <contour>
      <point x="723" y="616" type="curve"/>
      <point x="555" y="459"/>
      <point x="281" y="179"/>
      <point x="164" y="56" type="curve" smooth="yes"/>
      <point x="154" y="46"/>
      <point x="177" y="42"/>
      <point x="186" y="42" type="curve" smooth="yes"/>
      <point x="436" y="41" type="line" smooth="yes"/>
      <point x="502" y="41"/>
      <point x="519" y="50"/>
      <point x="553" y="81" type="curve" smooth="yes"/>
      <point x="581" y="106"/>
      <point x="603" y="136"/>
      <point x="632" y="186" type="curve" smooth="yes"/>
      <point x="637" y="189"/>
      <point x="652" y="191"/>
      <point x="657" y="189" type="curve" smooth="yes"/>
      <point x="661" y="188"/>
      <point x="662" y="182"/>
      <point x="660" y="175" type="curve" smooth="yes"/>
      <point x="649" y="118"/>
      <point x="631" y="64"/>
      <point x="614" y="10" type="curve" smooth="yes"/>
      <point x="611" y="4"/>
      <point x="594" y="-2"/>
      <point x="585" y="-2" type="curve" smooth="yes"/>
      <point x="11" y="-2" type="line" smooth="yes"/>
      <point x="7" y="-1"/>
      <point x="6" y="6"/>
      <point x="6" y="13" type="curve" smooth="yes"/>
      <point x="6" y="24"/>
      <point x="16" y="36"/>
      <point x="23" y="43" type="curve" smooth="yes"/>
      <point x="162" y="186"/>
      <point x="405" y="432"/>
      <point x="573" y="594" type="curve" smooth="yes"/>
      <point x="580" y="601"/>
      <point x="563" y="606"/>
      <point x="557" y="606" type="curve" smooth="yes"/>
      <point x="389" y="606" type="line" smooth="yes"/>
      <point x="290" y="606"/>
      <point x="239" y="568"/>
      <point x="201" y="469" type="curve" smooth="yes"/>
      <point x="199" y="459"/>
      <point x="165" y="458"/>
      <point x="167" y="471" type="curve" smooth="yes"/>
      <point x="174" y="513"/>
      <point x="193" y="595"/>
      <point x="207" y="637" type="curve" smooth="yes"/>
      <point x="209" y="643"/>
      <point x="224" y="646"/>
      <point x="228" y="646" type="curve" smooth="yes"/>
      <point x="352" y="644"/>
      <point x="577" y="645"/>
      <point x="704" y="646" type="curve" smooth="yes"/>
      <point x="729" y="649"/>
      <point x="728" y="633"/>
    </contour>
  </outline>
</glyph>
<glyph name="bracketright" format="1">
  <advance width="307"/>
  <unicode hex="005D"/>
  <outline>
    <contour>
      <point x="330" y="655" type="curve"/>
      <point x="160" y="-208" type="line"/>
      <point x="160" y="-208"/>
      <point x="156" y="-227"/>
      <point x="138" y="-227" type="curve" smooth="yes"/>
      <point x="-21" y="-228" type="line" smooth="yes"/>
      <point x="-28" y="-228"/>
      <point x="-43" y="-227"/>
      <point x="-39" y="-217" type="curve"/>
      <point x="-39" y="-213" type="line" smooth="yes"/>
      <point x="-36" y="-197"/>
      <point x="-23" y="-198"/>
      <point x="-19" y="-198" type="curve" smooth="yes"/>
      <point x="59" y="-198" type="line" smooth="yes"/>
      <point x="83" y="-198"/>
      <point x="90" y="-193"/>
      <point x="96" y="-164" type="curve" smooth="yes"/>
      <point x="250" y="619" type="line" smooth="yes"/>
      <point x="257" y="654"/>
      <point x="242" y="653"/>
      <point x="206" y="653" type="curve" smooth="yes"/>
      <point x="155" y="653" type="line" smooth="yes"/>
      <point x="127" y="653"/>
      <point x="130" y="664"/>
      <point x="135" y="669" type="curve"/>
      <point x="131" y="673"/>
      <point x="140" y="681"/>
      <point x="152" y="681" type="curve" smooth="yes"/>
      <point x="308" y="682" type="line" smooth="yes"/>
      <point x="336" y="682"/>
      <point x="330" y="655"/>
    </contour>
  </outline>
</glyph>
<glyph name="asciicircum" format="1">
  <advance width="434"/>
  <unicode hex="005E"/>
  <outline>
    <contour>
      <point x="488" y="360" type="line" smooth="yes"/>
      <point x="495" y="348"/>
      <point x="497" y="336"/>
      <point x="482" y="335" type="curve" smooth="yes"/>
      <point x="464" y="332" type="line" smooth="yes"/>
      <point x="451" y="331"/>
      <point x="447" y="331"/>
      <point x="437" y="348" type="curve" smooth="yes"/>
      <point x="288" y="601" type="line" smooth="yes"/>
      <point x="284" y="606"/>
      <point x="278" y="617"/>
      <point x="268" y="601" type="curve" smooth="yes"/>
      <point x="219" y="528"/>
      <point x="151" y="405"/>
      <point x="117" y="345" type="curve" smooth="yes"/>
      <point x="109" y="331"/>
      <point x="108" y="331"/>
      <point x="90" y="331" type="curve" smooth="yes"/>
      <point x="83" y="331"/>
      <point x="82" y="334"/>
      <point x="75" y="333" type="curve" smooth="yes"/>
      <point x="62" y="333"/>
      <point x="57" y="343"/>
      <point x="65" y="358" type="curve" smooth="yes"/>
      <point x="129" y="470"/>
      <point x="211" y="608"/>
      <point x="262" y="688" type="curve" smooth="yes"/>
      <point x="275" y="709"/>
      <point x="289" y="700"/>
      <point x="298" y="685" type="curve" smooth="yes"/>
    </contour>
  </outline>
</glyph>
<glyph name="b" format="1">
  <advance width="415"/>
  <unicode hex="0062"/>
  <outline>
    <contour>
      <point x="357" y="406" type="curve" smooth="yes"/>
      <point x="443" y="256"/>
      <point x="317" y="-12"/>
      <point x="162" y="-12" type="curve" smooth="yes"/>
      <point x="62" y="-12"/>
      <point x="55" y="72"/>
      <point x="68" y="146" type="curve" smooth="yes"/>
      <point x="100" y="328"/>
      <point x="128" y="487"/>
      <point x="170" y="668" type="curve" smooth="yes"/>
      <point x="175" y="689"/>
      <point x="171" y="687"/>
      <point x="164" y="684" type="curve" smooth="yes"/>
      <point x="157" y="681"/>
      <point x="147" y="674"/>
      <point x="137" y="671" type="curve" smooth="yes"/>
      <point x="110" y="659"/>
      <point x="112" y="688"/>
      <point x="124" y="695" type="curve" smooth="yes"/>
      <point x="209" y="745" type="line" smooth="yes"/>
      <point x="245" y="766"/>
      <point x="263" y="763"/>
      <point x="254" y="723" type="curve" smooth="yes"/>
      <point x="231" y="624"/>
      <point x="193" y="431"/>
      <point x="177" y="335" type="curve" smooth="yes"/>
      <point x="175" y="322"/>
      <point x="176" y="303"/>
      <point x="184" y="313" type="curve" smooth="yes"/>
      <point x="220" y="353"/>
      <point x="293" y="433"/>
      <point x="327" y="433" type="curve" smooth="yes"/>
      <point x="339" y="433"/>
      <point x="349" y="420"/>
    </contour>
    <contour>
      <point x="311" y="265" type="curve" smooth="yes"/>
      <point x="311" y="330"/>
      <point x="296" y="365"/>
      <point x="283" y="365" type="curve" smooth="yes"/>
      <point x="259" y="365"/>
      <point x="194" y="285"/>
      <point x="167" y="252" type="curve" smooth="yes"/>
      <point x="161" y="245"/>
      <point x="157" y="234"/>
      <point x="155" y="223" type="curve" smooth="yes"/>
      <point x="141" y="143" type="line" smooth="yes"/>
      <point x="133" y="100"/>
      <point x="121" y="22"/>
      <point x="176" y="22" type="curve" smooth="yes"/>
      <point x="259" y="22"/>
      <point x="311" y="195"/>
    </contour>
  </outline>
</glyph>
<glyph name="c" format="1">
  <advance width="320"/>
  <unicode hex="0063"/>
  <outline>
    <contour>
      <point x="334" y="386" type="curve" smooth="yes"/>
      <point x="334" y="365"/>
      <point x="322" y="347"/>
      <point x="302" y="347" type="curve" smooth="yes"/>
      <point x="282" y="347"/>
      <point x="270" y="356"/>
      <point x="253" y="365" type="curve" smooth="yes"/>
      <point x="241" y="372"/>
      <point x="235" y="374"/>
      <point x="228" y="374" type="curve" smooth="yes"/>
      <point x="210" y="374"/>
      <point x="190" y="354"/>
      <point x="171" y="306" type="curve" smooth="yes"/>
      <point x="150" y="252"/>
      <point x="82" y="43"/>
      <point x="177" y="43" type="curve" smooth="yes"/>
      <point x="205" y="43"/>
      <point x="240" y="65"/>
      <point x="271" y="103" type="curve" smooth="yes"/>
      <point x="279" y="119"/>
      <point x="305" y="95"/>
      <point x="298" y="81" type="curve" smooth="yes"/>
      <point x="250" y="23"/>
      <point x="189" y="-12"/>
      <point x="144" y="-12" type="curve" smooth="yes"/>
      <point x="89" y="-12"/>
      <point x="53" y="34"/>
      <point x="53" y="100" type="curve" smooth="yes"/>
      <point x="53" y="212"/>
      <point x="142" y="429"/>
      <point x="278" y="429" type="curve" smooth="yes"/>
      <point x="309" y="429"/>
      <point x="334" y="414"/>
    </contour>
  </outline>
</glyph>
<glyph name="l" format="1">
  <advance width="256"/>
  <unicode hex="006C"/>
  <outline>
    <contour>
      <point x="264" y="720" type="curve" smooth="yes"/>
      <point x="137" y="63" type="line" smooth="yes"/>
      <point x="134" y="47"/>
      <point x="135" y="43"/>
      <point x="141" y="43" type="curve" smooth="yes"/>
      <point x="148" y="43"/>
      <point x="166" y="57"/>
      <point x="204" y="101" type="curve"/>
      <point x="209" y="114"/>
      <point x="230" y="97"/>
      <point x="224" y="81" type="curve"/>
      <point x="176" y="22"/>
      <point x="132" y="-13"/>
      <point x="102" y="-13" type="curve" smooth="yes"/>
      <point x="55" y="-13"/>
      <point x="61" y="41"/>
      <point x="68" y="78" type="curve" smooth="yes"/>
      <point x="182" y="670" type="line" smooth="yes"/>
      <point x="183" y="677"/>
      <point x="182" y="687"/>
      <point x="172" y="680" type="curve" smooth="yes"/>
      <point x="162" y="676"/>
      <point x="147" y="667"/>
      <point x="126" y="655" type="curve" smooth="yes"/>
      <point x="110" y="643"/>
      <point x="103" y="681"/>
      <point x="115" y="685" type="curve" smooth="yes"/>
      <point x="208" y="741" type="line" smooth="yes"/>
      <point x="236" y="758"/>
      <point x="275" y="776"/>
    </contour>
  </outline>
</glyph>
<glyph name="n" format="1">
  <advance width="469"/>
  <unicode hex="006E"/>
  <outline>
    <contour>
      <point x="453" y="108" type="curve" smooth="yes"/>
      <point x="443" y="93" type="line" smooth="yes"/>
      <point x="397" y="24"/>
      <point x="341" y="-12"/>
      <point x="309" y="-12" type="curve" smooth="yes"/>
      <point x="267" y="-12"/>
      <point x="270" y="39"/>
      <point x="278" y="69" type="curve" smooth="yes"/>
      <point x="291" y="122"/>
      <point x="326" y="247"/>
      <point x="341" y="319" type="curve" smooth="yes"/>
      <point x="343" y="331"/>
      <point x="349" y="362"/>
      <point x="335" y="362" type="curve" smooth="yes"/>
      <point x="296" y="362"/>
      <point x="180" y="195"/>
      <point x="154" y="159" type="curve"/>
      <point x="123" y="11" type="line" smooth="yes"/>
      <point x="119" y="-8"/>
      <point x="116" y="-11"/>
      <point x="98" y="-11" type="curve" smooth="yes"/>
      <point x="71" y="-11" type="line" smooth="yes"/>
      <point x="58" y="-11"/>
      <point x="45" y="-5"/>
      <point x="51" y="14" type="curve" smooth="yes"/>
      <point x="111" y="319" type="line" smooth="yes"/>
      <point x="116" y="346"/>
      <point x="102" y="324"/>
      <point x="97" y="319" type="curve" smooth="yes"/>
      <point x="83" y="303"/>
      <point x="79" y="296"/>
      <point x="66" y="279" type="curve" smooth="yes"/>
      <point x="53" y="263"/>
      <point x="40" y="291"/>
      <point x="50" y="305" type="curve" smooth="yes"/>
      <point x="68" y="330"/>
      <point x="145" y="431"/>
      <point x="178" y="429" type="curve" smooth="yes"/>
      <point x="201" y="428"/>
      <point x="202" y="399"/>
      <point x="197" y="374" type="curve" smooth="yes"/>
      <point x="197" y="374"/>
      <point x="172" y="250"/>
      <point x="175" y="258" type="curve"/>
      <point x="170" y="237"/>
      <point x="185" y="262"/>
      <point x="185" y="262" type="curve"/>
      <point x="237" y="333"/>
      <point x="307" y="429"/>
      <point x="376" y="429" type="curve" smooth="yes"/>
      <point x="435" y="429"/>
      <point x="423" y="340"/>
      <point x="414" y="303" type="curve" smooth="yes"/>
      <point x="402" y="256"/>
      <point x="384" y="178"/>
      <point x="355" y="76" type="curve" smooth="yes"/>
      <point x="353" y="71"/>
      <point x="345" y="50"/>
      <point x="352" y="48" type="curve" smooth="yes"/>
      <point x="357" y="47"/>
      <point x="373" y="57"/>
      <point x="391" y="78" type="curve" smooth="yes"/>
      <point x="409" y="98"/>
      <point x="427" y="120"/>
      <point x="432" y="126" type="curve" smooth="yes"/>
      <point x="437" y="134"/>
      <point x="444" y="131"/>
      <point x="448" y="127" type="curve" smooth="yes"/>
      <point x="452" y="123"/>
      <point x="454" y="115"/>
    </contour>
  </outline>
</glyph>
<glyph name="p" format="1">
  <advance width="445"/>
  <unicode hex="0070"/>
  <outline>
    <contour>
      <point x="414" y="274" type="curve" smooth="yes"/>
      <point x="414" y="143"/>
      <point x="288" y="-49"/>
      <point x="140" y="-9" type="curve" smooth="yes"/>
      <point x="135" y="-8"/>
      <point x="133" y="-16"/>
      <point x="131" y="-21" type="curve" smooth="yes"/>
      <point x="104" y="-147" type="line" smooth="yes"/>
      <point x="99" y="-170"/>
      <point x="97" y="-184"/>
      <point x="95" y="-194" type="curve" smooth="yes"/>
      <point x="95" y="-200"/>
      <point x="94" y="-204"/>
      <point x="94" y="-208" type="curve" smooth="yes"/>
      <point x="94" y="-234"/>
      <point x="103" y="-238"/>
      <point x="171" y="-241" type="curve" smooth="yes"/>
      <point x="184" y="-241"/>
      <point x="183" y="-276"/>
      <point x="164" y="-275" type="curve" smooth="yes"/>
      <point x="61" y="-271"/>
      <point x="-15" y="-274"/>
      <point x="-58" y="-275" type="curve" smooth="yes"/>
      <point x="-66" y="-276"/>
      <point x="-68" y="-264"/>
      <point x="-67" y="-258" type="curve" smooth="yes"/>
      <point x="-66" y="-253"/>
      <point x="-62" y="-244"/>
      <point x="-55" y="-242" type="curve"/>
      <point x="-56" y="-241" type="line" smooth="yes"/>
      <point x="-52" y="-240"/>
      <point x="-40" y="-239"/>
      <point x="-40" y="-239" type="curve" smooth="yes"/>
      <point x="7" y="-233"/>
      <point x="16" y="-222"/>
      <point x="27" y="-166" type="curve" smooth="yes"/>
      <point x="31" y="-145" type="line"/>
      <point x="124" y="307" type="line" smooth="yes"/>
      <point x="127" y="324"/>
      <point x="140" y="359"/>
      <point x="111" y="334" type="curve" smooth="yes"/>
      <point x="91" y="317"/>
      <point x="66" y="283"/>
      <point x="58" y="273" type="curve" smooth="yes"/>
      <point x="50" y="263"/>
      <point x="26" y="279"/>
      <point x="39" y="298" type="curve" smooth="yes"/>
      <point x="90" y="374"/>
      <point x="158" y="429"/>
      <point x="187" y="429" type="curve" smooth="yes"/>
      <point x="205" y="429"/>
      <point x="210" y="414"/>
      <point x="210" y="394" type="curve" smooth="yes"/>
      <point x="210" y="368"/>
      <point x="205" y="341"/>
      <point x="200" y="315" type="curve" smooth="yes"/>
      <point x="195" y="287"/>
      <point x="210" y="313"/>
      <point x="224" y="334" type="curve" smooth="yes"/>
      <point x="233" y="347"/>
      <point x="244" y="360"/>
      <point x="255" y="374" type="curve" smooth="yes"/>
      <point x="280" y="403"/>
      <point x="309" y="428"/>
      <point x="341" y="428" type="curve" smooth="yes"/>
      <point x="395" y="428"/>
      <point x="414" y="331"/>
    </contour>
    <contour>
      <point x="339" y="270" type="curve" smooth="yes"/>
      <point x="339" y="330"/>
      <point x="323" y="366"/>
      <point x="304" y="366" type="curve" smooth="yes"/>
      <point x="294" y="366"/>
      <point x="272" y="343"/>
      <point x="248" y="310" type="curve" smooth="yes"/>
      <point x="224" y="277"/>
      <point x="198" y="238"/>
      <point x="179" y="208" type="curve"/>
      <point x="147" y="48" type="line" smooth="yes"/>
      <point x="146" y="42"/>
      <point x="148" y="37"/>
      <point x="153" y="34" type="curve" smooth="yes"/>
      <point x="161" y="28"/>
      <point x="174" y="21"/>
      <point x="185" y="21" type="curve" smooth="yes"/>
      <point x="262" y="21"/>
      <point x="339" y="140"/>
    </contour>
  </outline>
</glyph>
<glyph name="q" format="1">
  <advance width="426"/>
  <unicode hex="0071"/>
  <outline>
    <contour>
      <point x="407" y="400" type="curve" smooth="yes"/>
      <point x="296" y="-148" type="line" smooth="yes"/>
      <point x="292" y="-169"/>
      <point x="286" y="-188"/>
      <point x="286" y="-209" type="curve" smooth="yes"/>
      <point x="286" y="-246"/>
      <point x="323" y="-241"/>
      <point x="350" y="-241" type="curve" smooth="yes"/>
      <point x="371" y="-238"/>
      <point x="363" y="-278"/>
      <point x="343" y="-275" type="curve" smooth="yes"/>
      <point x="253" y="-273"/>
      <point x="202" y="-274"/>
      <point x="125" y="-275" type="curve" smooth="yes"/>
      <point x="108" y="-273"/>
      <point x="119" y="-238"/>
      <point x="134" y="-241" type="curve"/>
      <point x="199" y="-235"/>
      <point x="206" y="-230"/>
      <point x="214" y="-187" type="curve" smooth="yes"/>
      <point x="218" y="-166"/>
      <point x="223" y="-144"/>
      <point x="268" y="71" type="curve" smooth="yes"/>
      <point x="269" y="77"/>
      <point x="271" y="103"/>
      <point x="263" y="95" type="curve" smooth="yes"/>
      <point x="229" y="59"/>
      <point x="156" y="-15"/>
      <point x="116" y="-15" type="curve" smooth="yes"/>
      <point x="79" y="-15"/>
      <point x="52" y="46"/>
      <point x="52" y="106" type="curve" smooth="yes"/>
      <point x="52" y="169"/>
      <point x="81" y="236"/>
      <point x="134" y="299" type="curve" smooth="yes"/>
      <point x="198" y="377"/>
      <point x="283" y="429"/>
      <point x="385" y="429" type="curve" smooth="yes"/>
      <point x="401" y="429"/>
      <point x="411" y="421"/>
    </contour>
    <contour>
      <point x="322" y="342" type="line" smooth="yes"/>
      <point x="326" y="362"/>
      <point x="323" y="363"/>
      <point x="321" y="363" type="curve" smooth="yes"/>
      <point x="269" y="360"/>
      <point x="239" y="347"/>
      <point x="212" y="325" type="curve" smooth="yes"/>
      <point x="161" y="283"/>
      <point x="127" y="200"/>
      <point x="127" y="122" type="curve" smooth="yes"/>
      <point x="127" y="69"/>
      <point x="140" y="49"/>
      <point x="156" y="49" type="curve" smooth="yes"/>
      <point x="174" y="49"/>
      <point x="209" y="84"/>
      <point x="290" y="171" type="curve"/>
    </contour>
  </outline>
</glyph>
<glyph name="asciitilde" format="1">
  <advance width="551"/>
  <unicode hex="007E"/>
  <outline>
    <contour>
      <point x="574" y="396" type="curve" smooth="yes"/>
      <point x="571" y="309"/>
      <point x="516" y="243"/>
      <point x="444" y="243" type="curve" smooth="yes"/>
      <point x="404" y="243"/>
      <point x="367" y="257"/>
      <point x="298" y="293" type="curve" smooth="yes"/>
      <point x="248" y="320"/>
      <point x="223" y="330"/>
      <point x="202" y="330" type="curve" smooth="yes"/>
      <point x="160" y="330"/>
      <point x="128" y="297"/>
      <point x="124" y="248" type="curve"/>
      <point x="119" y="238"/>
      <point x="94" y="236"/>
      <point x="92" y="249" type="curve" smooth="yes"/>
      <point x="93" y="334"/>
      <point x="152" y="402"/>
      <point x="226" y="402" type="curve" smooth="yes"/>
      <point x="265" y="402"/>
      <point x="294" y="392"/>
      <point x="362" y="355" type="curve" smooth="yes"/>
      <point x="410" y="328"/>
      <point x="438" y="318"/>
      <point x="461" y="318" type="curve" smooth="yes"/>
      <point x="505" y="318"/>
      <point x="534" y="345"/>
      <point x="540" y="396" type="curve" smooth="yes"/>
      <point x="544" y="412"/>
      <point x="572" y="409"/>
    </contour>
  </outline>
</glyph>
<glyph name="cent" format="1">
  <advance width="276"/>
  <unicode hex="00A2"/>
  <outline>
    <contour>
      <point x="321" y="384" type="curve" smooth="yes"/>
      <point x="321" y="363"/>
      <point x="310" y="347"/>
      <point x="291" y="347" type="curve" smooth="yes"/>
      <point x="276" y="347"/>
      <point x="267" y="350"/>
      <point x="241" y="365" type="curve" smooth="yes"/>
      <point x="229" y="371"/>
      <point x="226" y="369"/>
      <point x="224" y="360" type="curve" smooth="yes"/>
      <point x="166" y="47" type="line" smooth="yes"/>
      <point x="164" y="38"/>
      <point x="167" y="35"/>
      <point x="177" y="37" type="curve" smooth="yes"/>
      <point x="201" y="41"/>
      <point x="229" y="60"/>
      <point x="258" y="94" type="curve" smooth="yes"/>
      <point x="262" y="99"/>
      <point x="268" y="101"/>
      <point x="271" y="97" type="curve" smooth="yes"/>
      <point x="278" y="92" type="line" smooth="yes"/>
      <point x="283" y="88"/>
      <point x="284" y="82"/>
      <point x="280" y="78" type="curve" smooth="yes"/>
      <point x="242" y="32"/>
      <point x="203" y="3"/>
      <point x="166" y="-10" type="curve" smooth="yes"/>
      <point x="160" y="-12"/>
      <point x="155" y="-15"/>
      <point x="154" y="-22" type="curve" smooth="yes"/>
      <point x="118" y="-221" type="line" smooth="yes"/>
      <point x="116" y="-230"/>
      <point x="113" y="-237"/>
      <point x="103" y="-235" type="curve" smooth="yes"/>
      <point x="98" y="-234" type="line" smooth="yes"/>
      <point x="90" y="-232"/>
      <point x="87" y="-232"/>
      <point x="89" y="-220" type="curve" smooth="yes"/>
      <point x="125" y="-26" type="line" smooth="yes"/>
      <point x="127" y="-18"/>
      <point x="123" y="-16"/>
      <point x="118" y="-15" type="curve" smooth="yes"/>
      <point x="69" y="-8"/>
      <point x="40" y="34"/>
      <point x="40" y="96" type="curve" smooth="yes"/>
      <point x="40" y="213"/>
      <point x="115" y="362"/>
      <point x="201" y="410" type="curve" smooth="yes"/>
      <point x="206" y="413"/>
      <point x="209" y="424"/>
      <point x="210" y="429" type="curve" smooth="yes"/>
      <point x="252" y="660" type="line" smooth="yes"/>
      <point x="253" y="668"/>
      <point x="258" y="671"/>
      <point x="265" y="670" type="curve" smooth="yes"/>
      <point x="270" y="669" type="line" smooth="yes"/>
      <point x="276" y="668"/>
      <point x="281" y="665"/>
      <point x="280" y="657" type="curve" smooth="yes"/>
      <point x="238" y="433" type="line" smooth="yes"/>
      <point x="236" y="426"/>
      <point x="238" y="424"/>
      <point x="247" y="426" type="curve" smooth="yes"/>
      <point x="253" y="427"/>
      <point x="257" y="427"/>
      <point x="264" y="427" type="curve" smooth="yes"/>
      <point x="298" y="427"/>
      <point x="321" y="413"/>
    </contour>
    <contour>
      <point x="195" y="353" type="line" smooth="yes"/>
      <point x="197" y="362"/>
      <point x="196" y="368"/>
      <point x="190" y="362" type="curve" smooth="yes"/>
      <point x="184" y="357"/>
      <point x="179" y="349"/>
      <point x="173" y="340" type="curve" smooth="yes"/>
      <point x="142" y="288"/>
      <point x="114" y="175"/>
      <point x="114" y="107" type="curve" smooth="yes"/>
      <point x="114" y="81"/>
      <point x="120" y="63"/>
      <point x="131" y="51" type="curve" smooth="yes"/>
      <point x="135" y="47"/>
      <point x="140" y="50"/>
      <point x="141" y="57" type="curve" smooth="yes"/>
    </contour>
  </outline>
</glyph>
<glyph name="dieresis" format="1">
  <advance width="339"/>
  <unicode hex="00A8"/>
  <outline>
    <contour>
      <point x="381" y="537" type="curve" smooth="yes"/>
      <point x="381" y="508"/>
      <point x="357" y="484"/>
      <point x="327" y="484" type="curve" smooth="yes"/>
      <point x="297" y="484"/>
      <point x="273" y="508"/>
      <point x="273" y="537" type="curve" smooth="yes"/>
      <point x="273" y="567"/>
      <point x="297" y="590"/>
      <point x="327" y="590" type="curve" smooth="yes"/>
      <point x="357" y="590"/>
      <point x="381" y="567"/>
    </contour>
    <contour>
      <point x="218" y="536" type="curve" smooth="yes"/>
      <point x="218" y="508"/>
      <point x="193" y="484"/>
      <point x="164" y="484" type="curve" smooth="yes"/>
      <point x="134" y="484"/>
      <point x="110" y="508"/>
      <point x="110" y="536" type="curve" smooth="yes"/>
      <point x="110" y="566"/>
      <point x="134" y="589"/>
      <point x="164" y="589" type="curve" smooth="yes"/>
      <point x="193" y="589"/>
      <point x="218" y="566"/>
    </contour>
  </outline>
</glyph>
<glyph name="ordfeminine" format="1">
  <advance width="265"/>
  <unicode hex="00AA"/>
  <outline>
    <contour>
      <point x="332" y="652" type="curve" smooth="yes"/>
      <point x="294" y="479" type="line" smooth="yes"/>
      <point x="292" y="471"/>
      <point x="290" y="462"/>
      <point x="289" y="453" type="curve" smooth="yes"/>
      <point x="289" y="447"/>
      <point x="291" y="447"/>
      <point x="298" y="452" type="curve" smooth="yes"/>
      <point x="306" y="458"/>
      <point x="317" y="469"/>
      <point x="326" y="478" type="curve" smooth="yes"/>
      <point x="329" y="482"/>
      <point x="331" y="474"/>
      <point x="331" y="473" type="curve" smooth="yes"/>
      <point x="331" y="453" type="line" smooth="yes"/>
      <point x="328" y="450"/>
      <point x="326" y="448"/>
      <point x="323" y="445" type="curve" smooth="yes"/>
      <point x="296" y="417"/>
      <point x="275" y="399"/>
      <point x="260" y="399" type="curve" smooth="yes"/>
      <point x="244" y="399"/>
      <point x="236" y="415"/>
      <point x="236" y="432" type="curve" smooth="yes"/>
      <point x="236" y="439"/>
      <point x="237" y="448"/>
      <point x="238" y="459" type="curve" smooth="yes"/>
      <point x="239" y="464"/>
      <point x="241" y="473"/>
      <point x="234" y="466" type="curve" smooth="yes"/>
      <point x="190" y="422"/>
      <point x="160" y="399"/>
      <point x="143" y="399" type="curve" smooth="yes"/>
      <point x="118" y="399"/>
      <point x="100" y="433"/>
      <point x="100" y="466" type="curve" smooth="yes"/>
      <point x="100" y="528"/>
      <point x="151" y="600"/>
      <point x="219" y="637" type="curve" smooth="yes"/>
      <point x="247" y="652"/>
      <point x="285" y="662"/>
      <point x="312" y="662" type="curve" smooth="yes"/>
      <point x="326" y="662" type="line" smooth="yes"/>
      <point x="332" y="662"/>
      <point x="333" y="657"/>
    </contour>
    <contour>
      <point x="270" y="608" type="line"/>
      <point x="271" y="607" type="line" smooth="yes"/>
      <point x="271" y="611"/>
      <point x="272" y="620"/>
      <point x="267" y="619" type="curve" smooth="yes"/>
      <point x="243" y="617"/>
      <point x="226" y="611"/>
      <point x="210" y="601" type="curve" smooth="yes"/>
      <point x="176" y="578"/>
      <point x="151" y="529"/>
      <point x="151" y="478" type="curve" smooth="yes"/>
      <point x="151" y="453"/>
      <point x="160" y="441"/>
      <point x="166" y="441" type="curve" smooth="yes"/>
      <point x="168" y="441"/>
      <point x="174" y="444"/>
      <point x="188" y="455" type="curve" smooth="yes"/>
      <point x="201" y="466"/>
      <point x="218" y="483"/>
      <point x="244" y="504" type="curve" smooth="yes"/>
      <point x="250" y="509" type="line"/>
    </contour>
  </outline>
</glyph>
<glyph name="twosuperior" format="1">
  <advance width="318"/>
  <unicode hex="00B2"/>
  <outline>
    <contour>
      <point x="370" y="583" type="curve" smooth="yes"/>
      <point x="370" y="545"/>
      <point x="341" y="504"/>
      <point x="270" y="451" type="curve" smooth="yes"/>
      <point x="241" y="429"/>
      <point x="212" y="406"/>
      <point x="184" y="384" type="curve" smooth="yes"/>
      <point x="176" y="378"/>
      <point x="160" y="365"/>
      <point x="180" y="365" type="curve" smooth="yes"/>
      <point x="265" y="365" type="line" smooth="yes"/>
      <point x="312" y="365"/>
      <point x="287" y="397"/>
      <point x="315" y="397" type="curve" smooth="yes"/>
      <point x="328" y="397"/>
      <point x="333" y="395"/>
      <point x="330" y="379" type="curve" smooth="yes"/>
      <point x="319" y="327" type="line" smooth="yes"/>
      <point x="317" y="318"/>
      <point x="304" y="314"/>
      <point x="284" y="315" type="curve" smooth="yes"/>
      <point x="246" y="317"/>
      <point x="156" y="317"/>
      <point x="103" y="315" type="curve" smooth="yes"/>
      <point x="97" y="315"/>
      <point x="82" y="314"/>
      <point x="81" y="323" type="curve" smooth="yes"/>
      <point x="80" y="326"/>
      <point x="80" y="332"/>
      <point x="87" y="340" type="curve" smooth="yes"/>
      <point x="116" y="364"/>
      <point x="150" y="395"/>
      <point x="190" y="432" type="curve" smooth="yes"/>
      <point x="231" y="469"/>
      <point x="271" y="508"/>
      <point x="288" y="538" type="curve" smooth="yes"/>
      <point x="310" y="578"/>
      <point x="310" y="627"/>
      <point x="252" y="627" type="curve" smooth="yes"/>
      <point x="219" y="627"/>
      <point x="193" y="611"/>
      <point x="175" y="575" type="curve" smooth="yes"/>
      <point x="169" y="564"/>
      <point x="166" y="562"/>
      <point x="152" y="562" type="curve" smooth="yes"/>
      <point x="142" y="562"/>
      <point x="138" y="568"/>
      <point x="142" y="580" type="curve" smooth="yes"/>
      <point x="159" y="633"/>
      <point x="205" y="665"/>
      <point x="263" y="665" type="curve" smooth="yes"/>
      <point x="325" y="665"/>
      <point x="370" y="632"/>
    </contour>
  </outline>
</glyph>
<glyph name="paragraph" format="1">
  <advance width="456"/>
  <unicode hex="00B6"/>
  <outline>
    <contour>
      <point x="468" y="613" type="line" smooth="yes"/>
      <point x="468" y="602"/>
      <point x="461" y="601"/>
      <point x="452" y="601" type="curve" smooth="yes"/>
      <point x="414" y="601" type="line" smooth="yes"/>
      <point x="402" y="601"/>
      <point x="401" y="592"/>
      <point x="401" y="583" type="curve" smooth="yes"/>
      <point x="401" y="-229" type="line" smooth="yes"/>
      <point x="401" y="-243"/>
      <point x="400" y="-245"/>
      <point x="385" y="-245" type="curve" smooth="yes"/>
      <point x="369" y="-245" type="line" smooth="yes"/>
      <point x="361" y="-245"/>
      <point x="352" y="-243"/>
      <point x="352" y="-230" type="curve" smooth="yes"/>
      <point x="353" y="573" type="line" smooth="yes"/>
      <point x="353" y="583"/>
      <point x="348" y="589"/>
      <point x="335" y="589" type="curve" smooth="yes"/>
      <point x="284" y="589" type="line" smooth="yes"/>
      <point x="273" y="589"/>
      <point x="271" y="579"/>
      <point x="271" y="571" type="curve" smooth="yes"/>
      <point x="272" y="-233" type="line" smooth="yes"/>
      <point x="272" y="-242"/>
      <point x="268" y="-245"/>
      <point x="256" y="-245" type="curve" smooth="yes"/>
      <point x="236" y="-245" type="line" smooth="yes"/>
      <point x="222" y="-245"/>
      <point x="221" y="-240"/>
      <point x="221" y="-229" type="curve" smooth="yes"/>
      <point x="221" y="233" type="line" smooth="yes"/>
      <point x="221" y="243"/>
      <point x="217" y="248"/>
      <point x="203" y="248" type="curve" smooth="yes"/>
      <point x="97" y="250"/>
      <point x="39" y="283"/>
      <point x="6" y="346" type="curve" smooth="yes"/>
      <point x="-10" y="376"/>
      <point x="-17" y="409"/>
      <point x="-17" y="444" type="curve" smooth="yes"/>
      <point x="-17" y="569"/>
      <point x="71" y="642"/>
      <point x="214" y="643" type="curve" smooth="yes"/>
      <point x="275" y="643"/>
      <point x="397" y="640"/>
      <point x="451" y="644" type="curve" smooth="yes"/>
      <point x="463" y="645"/>
      <point x="468" y="638"/>
      <point x="468" y="630" type="curve" smooth="yes"/>
    </contour>
  </outline>
</glyph>
<glyph name="periodcentered" format="1">
  <advance width="297"/>
  <unicode hex="00B7"/>
  <outline>
    <contour>
      <point x="220" y="338" type="curve" smooth="yes"/>
      <point x="220" y="309"/>
      <point x="197" y="284"/>
      <point x="167" y="284" type="curve" smooth="yes"/>
      <point x="139" y="284"/>
      <point x="115" y="309"/>
      <point x="115" y="338" type="curve" smooth="yes"/>
      <point x="115" y="367"/>
      <point x="139" y="391"/>
      <point x="167" y="391" type="curve" smooth="yes"/>
      <point x="197" y="391"/>
      <point x="220" y="367"/>
    </contour>
  </outline>
</glyph>
<glyph name="cedilla" format="1">
  <advance width="339"/>
  <unicode hex="00B8"/>
  <outline>
    <contour>
      <point x="207" y="-97" type="curve" smooth="yes"/>
      <point x="207" y="-161"/>
      <point x="153" y="-198"/>
      <point x="72" y="-198" type="curve" smooth="yes"/>
      <point x="65" y="-198"/>
      <point x="60" y="-198"/>
      <point x="43" y="-196" type="curve" smooth="yes"/>
      <point x="26" y="-191"/>
      <point x="34" y="-169"/>
      <point x="46" y="-169" type="curve" smooth="yes"/>
      <point x="61" y="-170"/>
      <point x="64" y="-170"/>
      <point x="70" y="-170" type="curve" smooth="yes"/>
      <point x="123" y="-170"/>
      <point x="150" y="-149"/>
      <point x="150" y="-116" type="curve" smooth="yes"/>
      <point x="150" y="-99"/>
      <point x="141" y="-87"/>
      <point x="110" y="-84" type="curve" smooth="yes"/>
      <point x="103" y="-83"/>
      <point x="100" y="-81"/>
      <point x="104" y="-73" type="curve" smooth="yes"/>
      <point x="140" y="0" type="line"/>
      <point x="168" y="0" type="line"/>
      <point x="155" y="-26" type="line"/>
      <point x="187" y="-32"/>
      <point x="207" y="-61"/>
    </contour>
  </outline>
</glyph>
<glyph name="guillemotright" format="1">
  <advance width="446"/>
  <unicode hex="00BB"/>
  <outline>
    <contour>
      <point x="97" y="69" type="curve" smooth="yes"/>
      <point x="202" y="231" type="line"/>
      <point x="175" y="386" type="line" smooth="yes"/>
      <point x="173" y="393"/>
      <point x="169" y="398"/>
      <point x="180" y="398" type="curve" smooth="yes"/>
      <point x="205" y="398" type="line"/>
      <point x="275" y="247" type="line" smooth="yes"/>
      <point x="283" y="230"/>
      <point x="281" y="226"/>
      <point x="268" y="212" type="curve" smooth="yes"/>
      <point x="126" y="59" type="line"/>
      <point x="100" y="59" type="line" smooth="yes"/>
      <point x="94" y="59"/>
      <point x="93" y="63"/>
    </contour>
    <contour>
      <point x="230" y="46" type="curve" smooth="yes"/>
      <point x="370" y="231" type="line"/>
      <point x="311" y="414" type="line" smooth="yes"/>
      <point x="309" y="420"/>
      <point x="311" y="422"/>
      <point x="322" y="422" type="curve" smooth="yes"/>
      <point x="343" y="422" type="line"/>
      <point x="440" y="251" type="line" smooth="yes"/>
      <point x="452" y="230"/>
      <point x="450" y="226"/>
      <point x="434" y="210" type="curve" smooth="yes"/>
      <point x="257" y="36" type="line"/>
      <point x="230" y="36" type="line" smooth="yes"/>
      <point x="225" y="36"/>
      <point x="226" y="40"/>
    </contour>
  </outline>
</glyph>
<glyph name="Aring" format="1">
  <advance width="693"/>
  <unicode hex="00C5"/>
  <outline>
    <contour>
      <point x="676" y="12" type="curve" smooth="yes"/>
      <point x="675" y="1"/>
      <point x="670" y="-5"/>
      <point x="658" y="-4" type="curve" smooth="yes"/>
      <point x="590" y="-1"/>
      <point x="450" y="-3"/>
      <point x="379" y="-4" type="curve" smooth="yes"/>
      <point x="364" y="-4"/>
      <point x="365" y="32"/>
      <point x="383" y="32" type="curve" smooth="yes"/>
      <point x="469" y="32"/>
      <point x="488" y="46"/>
      <point x="488" y="107" type="curve" smooth="yes"/>
      <point x="488" y="262" type="line" smooth="yes"/>
      <point x="489" y="267"/>
      <point x="475" y="275"/>
      <point x="469" y="275" type="curve" smooth="yes"/>
      <point x="415" y="278"/>
      <point x="343" y="277"/>
      <point x="295" y="275" type="curve" smooth="yes"/>
      <point x="285" y="274"/>
      <point x="274" y="269"/>
      <point x="264" y="258" type="curve" smooth="yes"/>
      <point x="149" y="104" type="line" smooth="yes"/>
      <point x="137" y="88"/>
      <point x="134" y="75"/>
      <point x="134" y="65" type="curve" smooth="yes"/>
      <point x="134" y="35"/>
      <point x="159" y="35"/>
      <point x="185" y="33" type="curve" smooth="yes"/>
      <point x="194" y="32"/>
      <point x="203" y="33"/>
      <point x="210" y="33" type="curve" smooth="yes"/>
      <point x="228" y="33"/>
      <point x="224" y="-4"/>
      <point x="206" y="-4" type="curve" smooth="yes"/>
      <point x="137" y="-3"/>
      <point x="40" y="-1"/>
      <point x="-32" y="-3" type="curve" smooth="yes"/>
      <point x="-48" y="-3"/>
      <point x="-47" y="32"/>
      <point x="-24" y="32" type="curve" smooth="yes"/>
      <point x="25" y="40"/>
      <point x="47" y="53"/>
      <point x="98" y="120" type="curve" smooth="yes"/>
      <point x="510" y="656" type="line" smooth="yes"/>
      <point x="517" y="666"/>
      <point x="579" y="670"/>
      <point x="579" y="653" type="curve" smooth="yes"/>
      <point x="584" y="83" type="line" smooth="yes"/>
      <point x="584" y="43"/>
      <point x="606" y="36"/>
      <point x="629" y="33" type="curve" smooth="yes"/>
      <point x="637" y="32"/>
      <point x="647" y="34"/>
      <point x="656" y="34" type="curve" smooth="yes"/>
      <point x="659" y="34"/>
      <point x="661" y="34"/>
      <point x="663" y="34" type="curve" smooth="yes"/>
      <point x="673" y="33"/>
      <point x="678" y="23"/>
    </contour>
    <contour>
      <point x="490" y="343" type="curve" smooth="yes"/>
      <point x="490" y="538" type="line" smooth="yes"/>
      <point x="490" y="561"/>
      <point x="483" y="552"/>
      <point x="480" y="549" type="curve" smooth="yes"/>
      <point x="435" y="492"/>
      <point x="370" y="395"/>
      <point x="331" y="347" type="curve" smooth="yes"/>
      <point x="328" y="343"/>
      <point x="325" y="328"/>
      <point x="336" y="328" type="curve" smooth="yes"/>
      <point x="373" y="330"/>
      <point x="438" y="329"/>
      <point x="470" y="328" type="curve" smooth="yes"/>
      <point x="476" y="328"/>
      <point x="490" y="331"/>
    </contour>
    <contour>
      <point x="649" y="795" type="curve" smooth="yes"/>
      <point x="649" y="741"/>
      <point x="607" y="698"/>
      <point x="554" y="698" type="curve" smooth="yes"/>
      <point x="502" y="698"/>
      <point x="458" y="741"/>
      <point x="458" y="795" type="curve" smooth="yes"/>
      <point x="458" y="849"/>
      <point x="502" y="893"/>
      <point x="554" y="893" type="curve" smooth="yes"/>
      <point x="607" y="893"/>
      <point x="649" y="849"/>
    </contour>
    <contour>
      <point x="608" y="795" type="curve" smooth="yes"/>
      <point x="608" y="826"/>
      <point x="583" y="850"/>
      <point x="554" y="850" type="curve" smooth="yes"/>
      <point x="524" y="850"/>
      <point x="501" y="826"/>
      <point x="501" y="795" type="curve" smooth="yes"/>
      <point x="501" y="766"/>
      <point x="524" y="741"/>
      <point x="554" y="741" type="curve" smooth="yes"/>
      <point x="583" y="741"/>
      <point x="608" y="766"/>
    </contour>
  </outline>
</glyph>
<glyph name="Eacute" format="1">
  <advance width="662"/>
  <unicode hex="00C9"/>
  <outline>
    <contour>
      <point x="562" y="857" type="curve" smooth="yes"/>
      <point x="526" y="801"/>
      <point x="470" y="743"/>
      <point x="447" y="720" type="curve" smooth="yes"/>
      <point x="439" y="710"/>
      <point x="422" y="714"/>
      <point x="426" y="727" type="curve" smooth="yes"/>
      <point x="436" y="759"/>
      <point x="459" y="823"/>
      <point x="466" y="865" type="curve" smooth="yes"/>
      <point x="470" y="874"/>
      <point x="480" y="876"/>
      <point x="492" y="877" type="curve" smooth="yes"/>
      <point x="549" y="880" type="line" smooth="yes"/>
      <point x="561" y="882"/>
      <point x="569" y="868"/>
    </contour>
    <contour>
      <point x="658" y="618" type="curve" smooth="yes"/>
      <point x="632" y="501" type="line"/>
      <point x="633" y="487"/>
      <point x="602" y="489"/>
      <point x="604" y="502" type="curve" smooth="yes"/>
      <point x="605" y="512"/>
      <point x="605" y="514"/>
      <point x="605" y="519" type="curve" smooth="yes"/>
      <point x="605" y="582"/>
      <point x="576" y="608"/>
      <point x="496" y="608" type="curve" smooth="yes"/>
      <point x="344" y="608" type="line" smooth="yes"/>
      <point x="339" y="608"/>
      <point x="323" y="605"/>
      <point x="321" y="597" type="curve" smooth="yes"/>
      <point x="272" y="361" type="line" smooth="yes"/>
      <point x="271" y="355"/>
      <point x="277" y="348"/>
      <point x="289" y="348" type="curve" smooth="yes"/>
      <point x="289" y="348"/>
      <point x="333" y="346"/>
      <point x="359" y="348" type="curve" smooth="yes"/>
      <point x="384" y="350"/>
      <point x="439" y="348"/>
      <point x="439" y="348" type="curve" smooth="yes"/>
      <point x="496" y="348"/>
      <point x="520" y="362"/>
      <point x="543" y="413" type="curve" smooth="yes"/>
      <point x="547" y="425"/>
      <point x="579" y="422"/>
      <point x="572" y="407" type="curve" smooth="yes"/>
      <point x="561" y="365"/>
      <point x="548" y="274"/>
      <point x="535" y="229" type="curve" smooth="yes"/>
      <point x="534" y="216"/>
      <point x="500" y="215"/>
      <point x="504" y="230" type="curve" smooth="yes"/>
      <point x="505" y="236"/>
      <point x="505" y="240"/>
      <point x="505" y="245" type="curve" smooth="yes"/>
      <point x="505" y="293"/>
      <point x="486" y="308"/>
      <point x="403" y="308" type="curve" smooth="yes"/>
      <point x="403" y="308"/>
      <point x="383" y="310"/>
      <point x="351" y="308" type="curve" smooth="yes"/>
      <point x="320" y="307"/>
      <point x="275" y="308"/>
      <point x="275" y="308" type="curve" smooth="yes"/>
      <point x="265" y="308"/>
      <point x="260" y="305"/>
      <point x="258" y="296" type="curve" smooth="yes"/>
      <point x="216" y="99" type="line" smooth="yes"/>
      <point x="202" y="35"/>
      <point x="261" y="38"/>
      <point x="309" y="38" type="curve" smooth="yes"/>
      <point x="379" y="38" type="line" smooth="yes"/>
      <point x="445" y="38"/>
      <point x="485" y="50"/>
      <point x="523" y="78" type="curve" smooth="yes"/>
      <point x="554" y="100"/>
      <point x="566" y="109"/>
      <point x="593" y="145" type="curve" smooth="yes"/>
      <point x="598" y="152"/>
      <point x="602" y="153"/>
      <point x="609" y="153" type="curve" smooth="yes"/>
      <point x="613" y="153"/>
      <point x="623" y="150"/>
      <point x="621" y="141" type="curve" smooth="yes"/>
      <point x="607" y="107"/>
      <point x="586" y="42"/>
      <point x="575" y="9" type="curve"/>
      <point x="566" y="-1"/>
      <point x="561" y="-2"/>
      <point x="533" y="-2" type="curve" smooth="yes"/>
      <point x="13" y="-3" type="line" smooth="yes"/>
      <point x="-6" y="-5"/>
      <point x="2" y="39"/>
      <point x="25" y="40" type="curve" smooth="yes"/>
      <point x="36" y="41"/>
      <point x="47" y="40"/>
      <point x="55" y="41" type="curve" smooth="yes"/>
      <point x="99" y="44"/>
      <point x="110" y="55"/>
      <point x="123" y="116" type="curve" smooth="yes"/>
      <point x="211" y="531" type="line" smooth="yes"/>
      <point x="216" y="553"/>
      <point x="217" y="565"/>
      <point x="217" y="572" type="curve" smooth="yes"/>
      <point x="217" y="598"/>
      <point x="196" y="611"/>
      <point x="155" y="611" type="curve" smooth="yes"/>
      <point x="129" y="611" type="line" smooth="yes"/>
      <point x="111" y="609"/>
      <point x="120" y="650"/>
      <point x="136" y="646" type="curve" smooth="yes"/>
      <point x="261" y="645"/>
      <point x="506" y="645"/>
      <point x="638" y="646" type="curve" smooth="yes"/>
      <point x="661" y="646"/>
      <point x="663" y="641"/>
    </contour>
  </outline>
</glyph>
<glyph name="Odieresis" format="1">
  <advance width="819"/>
  <unicode hex="00D6"/>
  <outline>
    <contour>
      <point x="653" y="776" type="curve" smooth="yes"/>
      <point x="653" y="747"/>
      <point x="630" y="722"/>
      <point x="600" y="722" type="curve" smooth="yes"/>
      <point x="570" y="722"/>
      <point x="545" y="747"/>
      <point x="545" y="776" type="curve" smooth="yes"/>
      <point x="545" y="806"/>
      <point x="570" y="829"/>
      <point x="600" y="829" type="curve" smooth="yes"/>
      <point x="630" y="829"/>
      <point x="653" y="806"/>
    </contour>
    <contour>
      <point x="490" y="775" type="curve" smooth="yes"/>
      <point x="490" y="747"/>
      <point x="465" y="722"/>
      <point x="436" y="722" type="curve" smooth="yes"/>
      <point x="406" y="722"/>
      <point x="383" y="747"/>
      <point x="383" y="775" type="curve" smooth="yes"/>
      <point x="383" y="805"/>
      <point x="407" y="828"/>
      <point x="436" y="828" type="curve" smooth="yes"/>
      <point x="465" y="828"/>
      <point x="490" y="805"/>
    </contour>
    <contour>
      <point x="776" y="357" type="curve" smooth="yes"/>
      <point x="776" y="150"/>
      <point x="600" y="-18"/>
      <point x="383" y="-18" type="curve" smooth="yes"/>
      <point x="209" y="-18"/>
      <point x="85" y="115"/>
      <point x="85" y="288" type="curve" smooth="yes"/>
      <point x="85" y="491"/>
      <point x="264" y="662"/>
      <point x="475" y="662" type="curve" smooth="yes"/>
      <point x="649" y="662"/>
      <point x="776" y="529"/>
    </contour>
    <contour>
      <point x="676" y="388" type="curve" smooth="yes"/>
      <point x="676" y="528"/>
      <point x="598" y="624"/>
      <point x="476" y="623" type="curve" smooth="yes"/>
      <point x="286" y="622"/>
      <point x="185" y="437"/>
      <point x="185" y="262" type="curve" smooth="yes"/>
      <point x="185" y="113"/>
      <point x="258" y="22"/>
      <point x="384" y="21" type="curve" smooth="yes"/>
      <point x="546" y="19"/>
      <point x="676" y="179"/>
    </contour>
  </outline>
</glyph>
<glyph name="multiply" format="1">
  <advance width="680"/>
  <unicode hex="00D7"/>
  <outline>
    <contour>
      <point x="589" y="541" type="line"/>
      <point x="385" y="333" type="line"/>
      <point x="587" y="127" type="line"/>
      <point x="542" y="81" type="line"/>
      <point x="341" y="287" type="line"/>
      <point x="137" y="81" type="line"/>
      <point x="92" y="127" type="line"/>
      <point x="295" y="333" type="line"/>
      <point x="92" y="541" type="line"/>
      <point x="136" y="588" type="line"/>
      <point x="340" y="379" type="line"/>
      <point x="544" y="588" type="line"/>
    </contour>
  </outline>
</glyph>
<glyph name="Udieresis" format="1">
  <advance width="748"/>
  <unicode hex="00DC"/>
  <outline>
    <contour>
      <point x="627" y="779" type="curve" smooth="yes"/>
      <point x="627" y="750"/>
      <point x="603" y="725"/>
      <point x="573" y="725" type="curve" smooth="yes"/>
      <point x="543" y="725"/>
      <point x="518" y="750"/>
      <point x="518" y="779" type="curve" smooth="yes"/>
      <point x="518" y="809"/>
      <point x="543" y="832"/>
      <point x="573" y="832" type="curve" smooth="yes"/>
      <point x="603" y="832"/>
      <point x="627" y="809"/>
    </contour>
    <contour>
      <point x="464" y="778" type="curve" smooth="yes"/>
      <point x="464" y="750"/>
      <point x="439" y="725"/>
      <point x="410" y="725" type="curve" smooth="yes"/>
      <point x="380" y="725"/>
      <point x="356" y="750"/>
      <point x="356" y="778" type="curve" smooth="yes"/>
      <point x="356" y="808"/>
      <point x="380" y="831"/>
      <point x="410" y="831" type="curve" smooth="yes"/>
      <point x="439" y="831"/>
      <point x="464" y="808"/>
    </contour>
    <contour>
      <point x="788" y="648" type="curve" smooth="yes"/>
      <point x="806" y="650"/>
      <point x="801" y="611"/>
      <point x="783" y="614" type="curve"/>
      <point x="728" y="607"/>
      <point x="706" y="596"/>
      <point x="689" y="507" type="curve" smooth="yes"/>
      <point x="638" y="236" type="line" smooth="yes"/>
      <point x="627" y="176"/>
      <point x="617" y="147"/>
      <point x="594" y="110" type="curve" smooth="yes"/>
      <point x="537" y="17"/>
      <point x="451" y="-18"/>
      <point x="343" y="-18" type="curve" smooth="yes"/>
      <point x="226" y="-18"/>
      <point x="161" y="15"/>
      <point x="115" y="84" type="curve" smooth="yes"/>
      <point x="74" y="147"/>
      <point x="81" y="204"/>
      <point x="96" y="272" type="curve" smooth="yes"/>
      <point x="151" y="527" type="line" smooth="yes"/>
      <point x="156" y="549"/>
      <point x="157" y="560"/>
      <point x="157" y="568" type="curve" smooth="yes"/>
      <point x="157" y="599"/>
      <point x="136" y="612"/>
      <point x="95" y="612" type="curve" smooth="yes"/>
      <point x="78" y="612" type="line" smooth="yes"/>
      <point x="63" y="612"/>
      <point x="70" y="650"/>
      <point x="85" y="648" type="curve" smooth="yes"/>
      <point x="155" y="646"/>
      <point x="288" y="645"/>
      <point x="348" y="648" type="curve" smooth="yes"/>
      <point x="356" y="648"/>
      <point x="362" y="645"/>
      <point x="362" y="636" type="curve" smooth="yes"/>
      <point x="361" y="629"/>
      <point x="357" y="609"/>
      <point x="348" y="610" type="curve" smooth="yes"/>
      <point x="274" y="614"/>
      <point x="265" y="602"/>
      <point x="249" y="529" type="curve" smooth="yes"/>
      <point x="192" y="266" type="line" smooth="yes"/>
      <point x="184" y="229"/>
      <point x="180" y="195"/>
      <point x="180" y="169" type="curve" smooth="yes"/>
      <point x="180" y="80"/>
      <point x="242" y="19"/>
      <point x="360" y="19" type="curve" smooth="yes"/>
      <point x="518" y="19"/>
      <point x="572" y="114"/>
      <point x="597" y="248" type="curve" smooth="yes"/>
      <point x="647" y="515" type="line" smooth="yes"/>
      <point x="650" y="531"/>
      <point x="651" y="541"/>
      <point x="651" y="551" type="curve" smooth="yes"/>
      <point x="651" y="610"/>
      <point x="609" y="614"/>
      <point x="563" y="614" type="curve" smooth="yes"/>
      <point x="547" y="614"/>
      <point x="556" y="652"/>
      <point x="570" y="648" type="curve"/>
      <point x="603" y="648"/>
      <point x="642" y="646"/>
      <point x="685" y="648" type="curve" smooth="yes"/>
      <point x="728" y="649"/>
      <point x="743" y="648"/>
      <point x="771" y="648" type="curve" smooth="yes"/>
      <point x="776" y="650"/>
      <point x="783" y="648"/>
    </contour>
  </outline>
</glyph>
<glyph name="Thorn" format="1">
  <advance width="573"/>
  <unicode hex="00DE"/>
  <outline>
    <contour>
      <point x="600" y="341" type="curve" smooth="yes"/>
      <point x="600" y="186"/>
      <point x="465" y="122"/>
      <point x="333" y="122" type="curve" smooth="yes"/>
      <point x="319" y="122"/>
      <point x="272" y="124"/>
      <point x="277" y="144" type="curve" smooth="yes"/>
      <point x="281" y="163"/>
      <point x="301" y="154"/>
      <point x="315" y="154" type="curve" smooth="yes"/>
      <point x="433" y="154"/>
      <point x="504" y="241"/>
      <point x="504" y="354" type="curve" smooth="yes"/>
      <point x="504" y="480"/>
      <point x="422" y="485"/>
      <point x="324" y="485" type="curve" smooth="yes"/>
      <point x="315" y="485"/>
      <point x="302" y="477"/>
      <point x="301" y="473" type="curve" smooth="yes"/>
      <point x="275" y="341"/>
      <point x="243" y="200"/>
      <point x="224" y="78" type="curve" smooth="yes"/>
      <point x="219" y="46"/>
      <point x="242" y="31"/>
      <point x="288" y="31" type="curve" smooth="yes"/>
      <point x="302" y="31"/>
      <point x="308" y="27"/>
      <point x="307" y="18" type="curve" smooth="yes"/>
      <point x="306" y="11" type="line" smooth="yes"/>
      <point x="303" y="5"/>
      <point x="297" y="-4"/>
      <point x="287" y="-4" type="curve" smooth="yes"/>
      <point x="233" y="-2"/>
      <point x="107" y="1"/>
      <point x="59" y="-4" type="curve" smooth="yes"/>
      <point x="45" y="-4"/>
      <point x="43" y="10"/>
      <point x="44" y="16" type="curve" smooth="yes"/>
      <point x="47" y="31"/>
      <point x="53" y="31"/>
      <point x="64" y="32" type="curve" smooth="yes"/>
      <point x="110" y="38"/>
      <point x="127" y="57"/>
      <point x="141" y="128" type="curve" smooth="yes"/>
      <point x="171" y="277"/>
      <point x="201" y="428"/>
      <point x="227" y="574" type="curve" smooth="yes"/>
      <point x="231" y="599"/>
      <point x="208" y="614"/>
      <point x="169" y="614" type="curve" smooth="yes"/>
      <point x="157" y="614"/>
      <point x="150" y="619"/>
      <point x="151" y="628" type="curve" smooth="yes"/>
      <point x="152" y="635" type="line" smooth="yes"/>
      <point x="154" y="642"/>
      <point x="162" y="647"/>
      <point x="169" y="647" type="curve" smooth="yes"/>
      <point x="240" y="645"/>
      <point x="333" y="647"/>
      <point x="394" y="649" type="curve" smooth="yes"/>
      <point x="398" y="649"/>
      <point x="401" y="648"/>
      <point x="406" y="646" type="curve" smooth="yes"/>
      <point x="417" y="640"/>
      <point x="408" y="617"/>
      <point x="399" y="617" type="curve" smooth="yes"/>
      <point x="348" y="614"/>
      <point x="326" y="592"/>
      <point x="314" y="540" type="curve" smooth="yes"/>
      <point x="312" y="530"/>
      <point x="321" y="522"/>
      <point x="336" y="522" type="curve" smooth="yes"/>
      <point x="407" y="522"/>
      <point x="474" y="525"/>
      <point x="533" y="480" type="curve" smooth="yes"/>
      <point x="577" y="447"/>
      <point x="600" y="399"/>
    </contour>
  </outline>
</glyph>
<glyph name="adieresis" format="1">
  <advance width="420"/>
  <unicode hex="00E4"/>
  <outline>
    <contour>
      <point x="414" y="554" type="curve" smooth="yes"/>
      <point x="414" y="523"/>
      <point x="390" y="496"/>
      <point x="359" y="496" type="curve" smooth="yes"/>
      <point x="328" y="496"/>
      <point x="303" y="522"/>
      <point x="303" y="554" type="curve" smooth="yes"/>
      <point x="303" y="585"/>
      <point x="328" y="610"/>
      <point x="359" y="610" type="curve" smooth="yes"/>
      <point x="389" y="610"/>
      <point x="414" y="585"/>
    </contour>
    <contour>
      <point x="250" y="553" type="curve" smooth="yes"/>
      <point x="250" y="522"/>
      <point x="225" y="496"/>
      <point x="195" y="496" type="curve" smooth="yes"/>
      <point x="165" y="496"/>
      <point x="141" y="523"/>
      <point x="141" y="553" type="curve" smooth="yes"/>
      <point x="141" y="584"/>
      <point x="165" y="609"/>
      <point x="195" y="609" type="curve" smooth="yes"/>
      <point x="225" y="609"/>
      <point x="250" y="584"/>
    </contour>
    <contour>
      <point x="392" y="97" type="curve" smooth="yes"/>
      <point x="395" y="86"/>
      <point x="388" y="83"/>
      <point x="382" y="76" type="curve" smooth="yes"/>
      <point x="358" y="49"/>
      <point x="306" y="-12"/>
      <point x="277" y="-12" type="curve" smooth="yes"/>
      <point x="231" y="-12"/>
      <point x="242" y="63"/>
      <point x="251" y="105" type="curve" smooth="yes"/>
      <point x="252" y="110"/>
      <point x="253" y="117"/>
      <point x="246" y="110" type="curve" smooth="yes"/>
      <point x="212" y="74"/>
      <point x="129" y="-12"/>
      <point x="95" y="-12" type="curve" smooth="yes"/>
      <point x="59" y="-12"/>
      <point x="32" y="44"/>
      <point x="32" y="99" type="curve" smooth="yes"/>
      <point x="32" y="202"/>
      <point x="110" y="323"/>
      <point x="216" y="386" type="curve" smooth="yes"/>
      <point x="269" y="417"/>
      <point x="318" y="428"/>
      <point x="376" y="428" type="curve" smooth="yes"/>
      <point x="381" y="428"/>
      <point x="385" y="425"/>
      <point x="385" y="416" type="curve" smooth="yes"/>
      <point x="328" y="121" type="line" smooth="yes"/>
      <point x="322" y="92"/>
      <point x="319" y="75"/>
      <point x="319" y="69" type="curve" smooth="yes"/>
      <point x="319" y="62"/>
      <point x="321" y="60"/>
      <point x="323" y="60" type="curve" smooth="yes"/>
      <point x="333" y="60"/>
      <point x="361" y="93"/>
      <point x="370" y="104" type="curve" smooth="yes"/>
      <point x="374" y="109"/>
      <point x="381" y="111"/>
      <point x="383" y="109" type="curve" smooth="yes"/>
      <point x="387" y="107"/>
      <point x="391" y="102"/>
    </contour>
    <contour>
      <point x="302" y="354" type="line" smooth="yes"/>
      <point x="303" y="361"/>
      <point x="305" y="367"/>
      <point x="293" y="365" type="curve" smooth="yes"/>
      <point x="252" y="360"/>
      <point x="222" y="346"/>
      <point x="195" y="328" type="curve" smooth="yes"/>
      <point x="139" y="290"/>
      <point x="103" y="207"/>
      <point x="103" y="120" type="curve" smooth="yes"/>
      <point x="103" y="77"/>
      <point x="119" y="50"/>
      <point x="131" y="50" type="curve" smooth="yes"/>
      <point x="144" y="50"/>
      <point x="247" y="151"/>
      <point x="264" y="166" type="curve"/>
    </contour>
  </outline>
</glyph>
<glyph name="idieresis" format="1">
  <advance width="258"/>
  <unicode hex="00EF"/>
  <outline>
    <contour>
      <point x="332" y="557" type="curve" smooth="yes"/>
      <point x="332" y="528"/>
      <point x="308" y="504"/>
      <point x="278" y="504" type="curve" smooth="yes"/>
      <point x="248" y="504"/>
      <point x="223" y="528"/>
      <point x="223" y="557" type="curve" smooth="yes"/>
      <point x="223" y="587"/>
      <point x="248" y="610"/>
      <point x="278" y="610" type="curve" smooth="yes"/>
      <point x="308" y="610"/>
      <point x="332" y="587"/>
    </contour>
    <contour>
      <point x="170" y="556" type="curve" smooth="yes"/>
      <point x="170" y="528"/>
      <point x="145" y="504"/>
      <point x="116" y="504" type="curve" smooth="yes"/>
      <point x="86" y="504"/>
      <point x="62" y="528"/>
      <point x="62" y="556" type="curve" smooth="yes"/>
      <point x="62" y="586"/>
      <point x="86" y="609"/>
      <point x="116" y="609" type="curve" smooth="yes"/>
      <point x="145" y="609"/>
      <point x="170" y="586"/>
    </contour>
    <contour>
      <point x="225" y="88" type="curve" smooth="yes"/>
      <point x="203" y="60"/>
      <point x="138" y="-11"/>
      <point x="99" y="-11" type="curve" smooth="yes"/>
      <point x="56" y="-10"/>
      <point x="67" y="51"/>
      <point x="71" y="71" type="curve" smooth="yes"/>
      <point x="122" y="322" type="line" smooth="yes"/>
      <point x="126" y="340"/>
      <point x="129" y="358"/>
      <point x="117" y="348" type="curve" smooth="yes"/>
      <point x="104" y="336"/>
      <point x="81" y="310"/>
      <point x="76" y="304" type="curve" smooth="yes"/>
      <point x="67" y="292"/>
      <point x="49" y="317"/>
      <point x="60" y="331" type="curve" smooth="yes"/>
      <point x="110" y="394"/>
      <point x="158" y="432"/>
      <point x="182" y="432" type="curve" smooth="yes"/>
      <point x="215" y="431"/>
      <point x="207" y="386"/>
      <point x="203" y="367" type="curve" smooth="yes"/>
      <point x="146" y="80" type="line" smooth="yes"/>
      <point x="143" y="65"/>
      <point x="144" y="52"/>
      <point x="155" y="62" type="curve" smooth="yes"/>
      <point x="169" y="72"/>
      <point x="196" y="102"/>
      <point x="204" y="114" type="curve" smooth="yes"/>
      <point x="218" y="133"/>
      <point x="233" y="97"/>
    </contour>
  </outline>
</glyph>
<glyph name="oacute" format="1">
  <advance width="401"/>
  <unicode hex="00F3"/>
  <outline>
    <contour>
      <point x="368" y="638" type="curve" smooth="yes"/>
      <point x="331" y="582"/>
      <point x="276" y="524"/>
      <point x="252" y="501" type="curve" smooth="yes"/>
      <point x="244" y="491"/>
      <point x="228" y="495"/>
      <point x="232" y="508" type="curve" smooth="yes"/>
      <point x="242" y="540"/>
      <point x="265" y="604"/>
      <point x="272" y="646" type="curve" smooth="yes"/>
      <point x="276" y="655"/>
      <point x="286" y="657"/>
      <point x="298" y="658" type="curve" smooth="yes"/>
      <point x="355" y="661" type="line" smooth="yes"/>
      <point x="367" y="664"/>
      <point x="375" y="649"/>
    </contour>
    <contour>
      <point x="374" y="273" type="curve" smooth="yes"/>
      <point x="374" y="211"/>
      <point x="355" y="153"/>
      <point x="320" y="107" type="curve" smooth="yes"/>
      <point x="290" y="68"/>
      <point x="238" y="25"/>
      <point x="189" y="4" type="curve" smooth="yes"/>
      <point x="167" y="-6"/>
      <point x="147" y="-12"/>
      <point x="133" y="-12" type="curve" smooth="yes"/>
      <point x="85" y="-12"/>
      <point x="38" y="71"/>
      <point x="38" y="155" type="curve" smooth="yes"/>
      <point x="38" y="242"/>
      <point x="89" y="327"/>
      <point x="174" y="385" type="curve" smooth="yes"/>
      <point x="211" y="411"/>
      <point x="252" y="429"/>
      <point x="277" y="429" type="curve" smooth="yes"/>
      <point x="325" y="429"/>
      <point x="374" y="353"/>
    </contour>
    <contour>
      <point x="299" y="260" type="curve" smooth="yes"/>
      <point x="299" y="330"/>
      <point x="265" y="379"/>
      <point x="228" y="379" type="curve" smooth="yes"/>
      <point x="171" y="379"/>
      <point x="115" y="275"/>
      <point x="115" y="152" type="curve" smooth="yes"/>
      <point x="115" y="85"/>
      <point x="146" y="37"/>
      <point x="177" y="37" type="curve" smooth="yes"/>
      <point x="238" y="37"/>
      <point x="299" y="140"/>
    </contour>
  </outline>
</glyph>
<glyph name="otilde" format="1">
  <advance width="401"/>
  <unicode hex="00F5"/>
  <outline>
    <contour>
      <point x="374" y="273" type="curve" smooth="yes"/>
      <point x="374" y="211"/>
      <point x="355" y="153"/>
      <point x="320" y="107" type="curve" smooth="yes"/>
      <point x="290" y="68"/>
      <point x="238" y="25"/>
      <point x="189" y="4" type="curve" smooth="yes"/>
      <point x="167" y="-6"/>
      <point x="147" y="-12"/>
      <point x="133" y="-12" type="curve" smooth="yes"/>
      <point x="85" y="-12"/>
      <point x="38" y="71"/>
      <point x="38" y="155" type="curve" smooth="yes"/>
      <point x="38" y="242"/>
      <point x="89" y="327"/>
      <point x="174" y="385" type="curve" smooth="yes"/>
      <point x="211" y="411"/>
      <point x="252" y="429"/>
      <point x="277" y="429" type="curve" smooth="yes"/>
      <point x="325" y="429"/>
      <point x="374" y="353"/>
    </contour>
    <contour>
      <point x="299" y="260" type="curve" smooth="yes"/>
      <point x="299" y="330"/>
      <point x="265" y="379"/>
      <point x="228" y="379" type="curve" smooth="yes"/>
      <point x="171" y="379"/>
      <point x="115" y="275"/>
      <point x="115" y="152" type="curve" smooth="yes"/>
      <point x="115" y="85"/>
      <point x="146" y="37"/>
      <point x="177" y="37" type="curve" smooth="yes"/>
      <point x="238" y="37"/>
      <point x="299" y="140"/>
    </contour>
    <contour>
      <point x="464" y="625" type="curve" smooth="yes"/>
      <point x="465" y="619"/>
      <point x="464" y="615"/>
      <point x="464" y="612" type="curve" smooth="yes"/>
      <point x="449" y="541"/>
      <point x="396" y="496"/>
      <point x="338" y="496" type="curve" smooth="yes"/>
      <point x="311" y="496"/>
      <point x="282" y="509"/>
      <point x="250" y="535" type="curve" smooth="yes"/>
      <point x="218" y="561"/>
      <point x="210" y="564"/>
      <point x="197" y="564" type="curve" smooth="yes"/>
      <point x="178" y="564"/>
      <point x="165" y="553"/>
      <point x="150" y="517" type="curve" smooth="yes"/>
      <point x="149" y="513"/>
      <point x="146" y="509"/>
      <point x="143" y="499" type="curve" smooth="yes"/>
      <point x="137" y="491"/>
      <point x="115" y="486"/>
      <point x="116" y="499" type="curve" smooth="yes"/>
      <point x="138" y="585"/>
      <point x="182" y="626"/>
      <point x="243" y="626" type="curve" smooth="yes"/>
      <point x="273" y="626"/>
      <point x="294" y="617"/>
      <point x="332" y="586" type="curve" smooth="yes"/>
      <point x="359" y="565"/>
      <point x="373" y="559"/>
      <point x="385" y="559" type="curve" smooth="yes"/>
      <point x="406" y="559"/>
      <point x="420" y="571"/>
      <point x="439" y="625" type="curve" smooth="yes"/>
      <point x="440" y="629"/>
      <point x="448" y="631"/>
      <point x="454" y="631" type="curve" smooth="yes"/>
      <point x="460" y="632"/>
      <point x="465" y="629"/>
    </contour>
  </outline>
</glyph>
<glyph name="odieresis" format="1">
  <advance width="401"/>
  <unicode hex="00F6"/>
  <outline>
    <contour>
      <point x="407" y="547" type="curve" smooth="yes"/>
      <point x="407" y="518"/>
      <point x="383" y="494"/>
      <point x="353" y="494" type="curve" smooth="yes"/>
      <point x="323" y="494"/>
      <point x="298" y="518"/>
      <point x="298" y="547" type="curve" smooth="yes"/>
      <point x="298" y="577"/>
      <point x="323" y="600"/>
      <point x="353" y="600" type="curve" smooth="yes"/>
      <point x="383" y="600"/>
      <point x="407" y="577"/>
    </contour>
    <contour>
      <point x="243" y="546" type="curve" smooth="yes"/>
      <point x="243" y="518"/>
      <point x="219" y="494"/>
      <point x="190" y="494" type="curve" smooth="yes"/>
      <point x="160" y="494"/>
      <point x="136" y="518"/>
      <point x="136" y="546" type="curve" smooth="yes"/>
      <point x="136" y="576"/>
      <point x="160" y="599"/>
      <point x="190" y="599" type="curve" smooth="yes"/>
      <point x="219" y="599"/>
      <point x="243" y="576"/>
    </contour>
    <contour>
      <point x="374" y="273" type="curve" smooth="yes"/>
      <point x="374" y="211"/>
      <point x="355" y="153"/>
      <point x="320" y="107" type="curve" smooth="yes"/>
      <point x="290" y="68"/>
      <point x="238" y="25"/>
      <point x="189" y="4" type="curve" smooth="yes"/>
      <point x="167" y="-6"/>
      <point x="147" y="-12"/>
      <point x="133" y="-12" type="curve" smooth="yes"/>
      <point x="85" y="-12"/>
      <point x="38" y="71"/>
      <point x="38" y="155" type="curve" smooth="yes"/>
      <point x="38" y="242"/>
      <point x="89" y="327"/>
      <point x="174" y="385" type="curve" smooth="yes"/>
      <point x="211" y="411"/>
      <point x="252" y="429"/>
      <point x="277" y="429" type="curve" smooth="yes"/>
      <point x="325" y="429"/>
      <point x="374" y="353"/>
    </contour>
    <contour>
      <point x="299" y="260" type="curve" smooth="yes"/>
      <point x="299" y="330"/>
      <point x="265" y="379"/>
      <point x="228" y="379" type="curve" smooth="yes"/>
      <point x="171" y="379"/>
      <point x="115" y="275"/>
      <point x="115" y="152" type="curve" smooth="yes"/>
      <point x="115" y="85"/>
      <point x="146" y="37"/>
      <point x="177" y="37" type="curve" smooth="yes"/>
      <point x="238" y="37"/>
      <point x="299" y="140"/>
    </contour>
  </outline>
</glyph>
<glyph name="oslash" format="1">
  <advance width="403"/>
  <unicode hex="00F8"/>
  <outline>
    <contour>
      <point x="401" y="413" type="line" smooth="yes"/>
      <point x="405" y="409"/>
      <point x="401" y="402"/>
      <point x="397" y="398" type="curve" smooth="yes"/>
      <point x="371" y="370" type="line" smooth="yes"/>
      <point x="366" y="365"/>
      <point x="363" y="356"/>
      <point x="366" y="350" type="curve" smooth="yes"/>
      <point x="376" y="326"/>
      <point x="381" y="300"/>
      <point x="381" y="270" type="curve" smooth="yes"/>
      <point x="381" y="208"/>
      <point x="362" y="150"/>
      <point x="327" y="104" type="curve" smooth="yes"/>
      <point x="297" y="65"/>
      <point x="245" y="23"/>
      <point x="196" y="2" type="curve" smooth="yes"/>
      <point x="174" y="-8"/>
      <point x="154" y="-14"/>
      <point x="140" y="-14" type="curve" smooth="yes"/>
      <point x="120" y="-14"/>
      <point x="102" y="-3"/>
      <point x="86" y="18" type="curve" smooth="yes"/>
      <point x="82" y="23"/>
      <point x="77" y="25"/>
      <point x="74" y="21" type="curve" smooth="yes"/>
      <point x="47" y="-11" type="line" smooth="yes"/>
      <point x="42" y="-17"/>
      <point x="37" y="-14"/>
      <point x="35" y="-11" type="curve" smooth="yes"/>
      <point x="28" y="-2" type="line" smooth="yes"/>
      <point x="25" y="2"/>
      <point x="26" y="7"/>
      <point x="28" y="10" type="curve" smooth="yes"/>
      <point x="60" y="48" type="line" smooth="yes"/>
      <point x="64" y="53"/>
      <point x="62" y="61"/>
      <point x="61" y="64" type="curve" smooth="yes"/>
      <point x="51" y="90"/>
      <point x="46" y="120"/>
      <point x="46" y="150" type="curve" smooth="yes"/>
      <point x="46" y="215"/>
      <point x="75" y="282"/>
      <point x="124" y="334" type="curve" smooth="yes"/>
      <point x="170" y="383"/>
      <point x="243" y="425"/>
      <point x="284" y="425" type="curve" smooth="yes"/>
      <point x="304" y="425"/>
      <point x="325" y="411"/>
      <point x="343" y="390" type="curve" smooth="yes"/>
      <point x="347" y="385"/>
      <point x="351" y="389"/>
      <point x="357" y="396" type="curve" smooth="yes"/>
      <point x="379" y="422" type="line" smooth="yes"/>
      <point x="383" y="427"/>
      <point x="386" y="429"/>
      <point x="390" y="424" type="curve" smooth="yes"/>
    </contour>
    <contour>
      <point x="291" y="328" type="curve" smooth="yes"/>
      <point x="277" y="358"/>
      <point x="257" y="375"/>
      <point x="235" y="375" type="curve" smooth="yes"/>
      <point x="179" y="375"/>
      <point x="122" y="271"/>
      <point x="122" y="153" type="curve" smooth="yes"/>
      <point x="122" y="135"/>
      <point x="127" y="126"/>
      <point x="134" y="133" type="curve" smooth="yes"/>
      <point x="171" y="179"/>
      <point x="247" y="269"/>
      <point x="285" y="312" type="curve" smooth="yes"/>
      <point x="290" y="317"/>
      <point x="293" y="324"/>
    </contour>
    <contour>
      <point x="305" y="256" type="curve" smooth="yes"/>
      <point x="305" y="260"/>
      <point x="305" y="294"/>
      <point x="294" y="280" type="curve" smooth="yes"/>
      <point x="256" y="231"/>
      <point x="180" y="143"/>
      <point x="140" y="98" type="curve" smooth="yes"/>
      <point x="133" y="91"/>
      <point x="132" y="85"/>
      <point x="136" y="77" type="curve" smooth="yes"/>
      <point x="149" y="49"/>
      <point x="166" y="34"/>
      <point x="184" y="34" type="curve" smooth="yes"/>
      <point x="245" y="34"/>
      <point x="305" y="137"/>
    </contour>
  </outline>
</glyph>
<glyph name="dotlessi" format="1">
  <advance width="258"/>
  <unicode hex="0131"/>
  <outline>
    <contour>
      <point x="219" y="110" type="curve" smooth="yes"/>
      <point x="222" y="104"/>
      <point x="225" y="96"/>
      <point x="218" y="87" type="curve" smooth="yes"/>
      <point x="202" y="66"/>
      <point x="184" y="46"/>
      <point x="163" y="26" type="curve" smooth="yes"/>
      <point x="135" y="0"/>
      <point x="114" y="-14"/>
      <point x="98" y="-14" type="curve" smooth="yes"/>
      <point x="58" y="-14"/>
      <point x="65" y="42"/>
      <point x="70" y="67" type="curve" smooth="yes"/>
      <point x="85" y="136"/>
      <point x="112" y="272"/>
      <point x="119" y="321" type="curve" smooth="yes"/>
      <point x="123" y="345"/>
      <point x="112" y="344"/>
      <point x="102" y="332" type="curve" smooth="yes"/>
      <point x="96" y="322"/>
      <point x="80" y="307"/>
      <point x="69" y="300" type="curve" smooth="yes"/>
      <point x="55" y="293"/>
      <point x="50" y="315"/>
      <point x="54" y="322" type="curve" smooth="yes"/>
      <point x="113" y="390"/>
      <point x="153" y="425"/>
      <point x="177" y="425" type="curve" smooth="yes"/>
      <point x="208" y="425"/>
      <point x="202" y="381"/>
      <point x="199" y="361" type="curve" smooth="yes"/>
      <point x="186" y="277"/>
      <point x="163" y="154"/>
      <point x="144" y="77" type="curve"/>
      <point x="138" y="35"/>
      <point x="157" y="60"/>
      <point x="167" y="71" type="curve" smooth="yes"/>
      <point x="194" y="101" type="line" smooth="yes"/>
      <point x="205" y="116"/>
      <point x="211" y="115"/>
    </contour>
  </outline>
</glyph>
<glyph name="oe" format="1">
  <advance width="581"/>
  <unicode hex="0153"/>
  <outline>
    <contour>
      <point x="592" y="346" type="curve" smooth="yes"/>
      <point x="592" y="304"/>
      <point x="559" y="266"/>
      <point x="503" y="238" type="curve" smooth="yes"/>
      <point x="457" y="215"/>
      <point x="406" y="197"/>
      <point x="363" y="186" type="curve" smooth="yes"/>
      <point x="358" y="185"/>
      <point x="350" y="181"/>
      <point x="349" y="171" type="curve" smooth="yes"/>
      <point x="347" y="155"/>
      <point x="346" y="145"/>
      <point x="346" y="129" type="curve" smooth="yes"/>
      <point x="346" y="63"/>
      <point x="372" y="32"/>
      <point x="418" y="32" type="curve" smooth="yes"/>
      <point x="465" y="32"/>
      <point x="498" y="57"/>
      <point x="533" y="84" type="curve" smooth="yes"/>
      <point x="544" y="96"/>
      <point x="559" y="66"/>
      <point x="548" y="55" type="curve" smooth="yes"/>
      <point x="485" y="6"/>
      <point x="424" y="-14"/>
      <point x="377" y="-14" type="curve" smooth="yes"/>
      <point x="336" y="-14"/>
      <point x="305" y="12"/>
      <point x="286" y="58" type="curve" smooth="yes"/>
      <point x="284" y="64"/>
      <point x="277" y="70"/>
      <point x="271" y="64" type="curve" smooth="yes"/>
      <point x="251" y="43"/>
      <point x="238" y="34"/>
      <point x="217" y="20" type="curve" smooth="yes"/>
      <point x="187" y="1"/>
      <point x="150" y="-15"/>
      <point x="127" y="-15" type="curve" smooth="yes"/>
      <point x="74" y="-15"/>
      <point x="33" y="58"/>
      <point x="33" y="138" type="curve" smooth="yes"/>
      <point x="33" y="237"/>
      <point x="82" y="327"/>
      <point x="171" y="388" type="curve" smooth="yes"/>
      <point x="205" y="411"/>
      <point x="237" y="424"/>
      <point x="265" y="424" type="curve" smooth="yes"/>
      <point x="305" y="424"/>
      <point x="331" y="398"/>
      <point x="347" y="347" type="curve" smooth="yes"/>
      <point x="350" y="336"/>
      <point x="355" y="341"/>
      <point x="360" y="348" type="curve" smooth="yes"/>
      <point x="397" y="398"/>
      <point x="445" y="424"/>
      <point x="503" y="424" type="curve" smooth="yes"/>
      <point x="556" y="424"/>
      <point x="592" y="394"/>
    </contour>
    <contour>
      <point x="528" y="345" type="curve" smooth="yes"/>
      <point x="528" y="372"/>
      <point x="509" y="392"/>
      <point x="481" y="392" type="curve" smooth="yes"/>
      <point x="425" y="392"/>
      <point x="384" y="343"/>
      <point x="358" y="226" type="curve" smooth="yes"/>
      <point x="356" y="217"/>
      <point x="368" y="219"/>
      <point x="376" y="222" type="curve" smooth="yes"/>
      <point x="477" y="250"/>
      <point x="528" y="294"/>
    </contour>
    <contour>
      <point x="286" y="265" type="curve" smooth="yes"/>
      <point x="286" y="334"/>
      <point x="258" y="379"/>
      <point x="227" y="379" type="curve" smooth="yes"/>
      <point x="167" y="379"/>
      <point x="108" y="288"/>
      <point x="108" y="168" type="curve" smooth="yes"/>
      <point x="108" y="159" type="line" smooth="yes"/>
      <point x="108" y="81"/>
      <point x="136" y="36"/>
      <point x="178" y="36" type="curve" smooth="yes"/>
      <point x="230" y="36"/>
      <point x="286" y="144"/>
    </contour>
  </outline>
</glyph>
<glyph name="Scaron" format="1">
  <advance width="517"/>
  <unicode hex="0160"/>
  <outline>
    <contour>
      <point x="510" y="641" type="curve" smooth="yes"/>
      <point x="505" y="590"/>
      <point x="496" y="517"/>
      <point x="488" y="474" type="curve" smooth="yes"/>
      <point x="486" y="467"/>
      <point x="477" y="465"/>
      <point x="472" y="465" type="curve" smooth="yes"/>
      <point x="465" y="465"/>
      <point x="456" y="468"/>
      <point x="456" y="474" type="curve" smooth="yes"/>
      <point x="456" y="567"/>
      <point x="415" y="616"/>
      <point x="327" y="616" type="curve" smooth="yes"/>
      <point x="247" y="616"/>
      <point x="204" y="576"/>
      <point x="204" y="520" type="curve" smooth="yes"/>
      <point x="204" y="482"/>
      <point x="215" y="453"/>
      <point x="286" y="401" type="curve" smooth="yes"/>
      <point x="356" y="350"/>
      <point x="392" y="321"/>
      <point x="414" y="299" type="curve" smooth="yes"/>
      <point x="447" y="266"/>
      <point x="472" y="217"/>
      <point x="472" y="170" type="curve" smooth="yes"/>
      <point x="472" y="59"/>
      <point x="380" y="-18"/>
      <point x="237" y="-18" type="curve" smooth="yes"/>
      <point x="165" y="-18"/>
      <point x="87" y="7"/>
      <point x="17" y="46" type="curve" smooth="yes"/>
      <point x="15" y="48"/>
      <point x="12" y="60"/>
      <point x="13" y="66" type="curve" smooth="yes"/>
      <point x="18" y="102"/>
      <point x="32" y="156"/>
      <point x="46" y="198" type="curve" smooth="yes"/>
      <point x="50" y="211"/>
      <point x="78" y="209"/>
      <point x="76" y="196" type="curve" smooth="yes"/>
      <point x="76" y="184"/>
      <point x="75" y="180"/>
      <point x="75" y="174" type="curve" smooth="yes"/>
      <point x="75" y="77"/>
      <point x="131" y="19"/>
      <point x="240" y="19" type="curve" smooth="yes"/>
      <point x="335" y="19"/>
      <point x="389" y="66"/>
      <point x="389" y="133" type="curve" smooth="yes"/>
      <point x="389" y="200"/>
      <point x="315" y="252"/>
      <point x="262" y="290" type="curve" smooth="yes"/>
      <point x="156" y="365"/>
      <point x="126" y="418"/>
      <point x="126" y="482" type="curve" smooth="yes"/>
      <point x="126" y="577"/>
      <point x="210" y="653"/>
      <point x="327" y="653" type="curve" smooth="yes"/>
      <point x="351" y="653"/>
      <point x="373" y="648"/>
      <point x="393" y="643" type="curve" smooth="yes"/>
      <point x="412" y="639"/>
      <point x="430" y="634"/>
      <point x="450" y="634" type="curve" smooth="yes"/>
      <point x="461" y="634"/>
      <point x="471" y="637"/>
      <point x="479" y="645" type="curve" smooth="yes"/>
      <point x="485" y="657"/>
      <point x="511" y="653"/>
    </contour>
    <contour>
      <point x="529" y="843" type="curve" smooth="yes"/>
      <point x="386" y="699" type="line" smooth="yes"/>
      <point x="380" y="695"/>
      <point x="369" y="692"/>
      <point x="355" y="692" type="curve" smooth="yes"/>
      <point x="313" y="692" type="line" smooth="yes"/>
      <point x="303" y="690"/>
      <point x="299" y="700"/>
      <point x="297" y="703" type="curve" smooth="yes"/>
      <point x="260" y="855" type="line" smooth="yes"/>
      <point x="258" y="864"/>
      <point x="276" y="864"/>
      <point x="280" y="855" type="curve" smooth="yes"/>
      <point x="354" y="766" type="line" smooth="yes"/>
      <point x="359" y="761"/>
      <point x="366" y="763"/>
      <point x="374" y="768" type="curve" smooth="yes"/>
      <point x="512" y="855" type="line" smooth="yes"/>
      <point x="521" y="860"/>
      <point x="550" y="865"/>
    </contour>
  </outline>
</glyph>
<glyph name="ring" format="1">
  <advance width="339"/>
  <unicode hex="02DA"/>
  <outline>
    <contour>
      <point x="348" y="559" type="curve" smooth="yes"/>
      <point x="348" y="505"/>
      <point x="306" y="462"/>
      <point x="253" y="462" type="curve" smooth="yes"/>
      <point x="201" y="462"/>
      <point x="157" y="505"/>
      <point x="157" y="559" type="curve" smooth="yes"/>
      <point x="157" y="613"/>
      <point x="201" y="657"/>
      <point x="253" y="657" type="curve" smooth="yes"/>
      <point x="306" y="657"/>
      <point x="348" y="613"/>
    </contour>
    <contour>
      <point x="307" y="559" type="curve" smooth="yes"/>
      <point x="307" y="590"/>
      <point x="282" y="614"/>
      <point x="253" y="614" type="curve" smooth="yes"/>
      <point x="223" y="614"/>
      <point x="200" y="590"/>
      <point x="200" y="559" type="curve" smooth="yes"/>
      <point x="200" y="530"/>
      <point x="223" y="505"/>
      <point x="253" y="505" type="curve" smooth="yes"/>
      <point x="282" y="505"/>
      <point x="307" y="530"/>
    </contour>
  </outline>
</glyph>
<glyph name="ogonek" format="1">
  <advance width="339"/>
  <unicode hex="02DB"/>
  <outline>
    <contour>
      <point x="241" y="-148" type="curve" smooth="yes"/>
      <point x="190" y="-184"/>
      <point x="162" y="-192"/>
      <point x="123" y="-192" type="curve" smooth="yes"/>
      <point x="55" y="-192"/>
      <point x="8" y="-152"/>
      <point x="8" y="-91" type="curve" smooth="yes"/>
      <point x="8" y="-57"/>
      <point x="20" y="-29"/>
      <point x="49" y="2" type="curve"/>
      <point x="84" y="2" type="line"/>
      <point x="72" y="-31"/>
      <point x="70" y="-41"/>
      <point x="70" y="-55" type="curve" smooth="yes"/>
      <point x="70" y="-103"/>
      <point x="110" y="-139"/>
      <point x="164" y="-139" type="curve" smooth="yes"/>
      <point x="182" y="-139"/>
      <point x="193" y="-136"/>
      <point x="224" y="-126" type="curve" smooth="yes"/>
      <point x="235" y="-123"/>
      <point x="257" y="-137"/>
    </contour>
  </outline>
</glyph>
<glyph name="tilde" format="1">
  <advance width="339"/>
  <unicode hex="02DC"/>
  <outline>
    <contour>
      <point x="404" y="625" type="curve" smooth="yes"/>
      <point x="404" y="566"/>
      <point x="384" y="490"/>
      <point x="310" y="490" type="curve" smooth="yes"/>
      <point x="244" y="490"/>
      <point x="189" y="556"/>
      <point x="153" y="556" type="curve" smooth="yes"/>
      <point x="130" y="556"/>
      <point x="120" y="546"/>
      <point x="111" y="491" type="curve" smooth="yes"/>
      <point x="109" y="479"/>
      <point x="85" y="482"/>
      <point x="85" y="491" type="curve" smooth="yes"/>
      <point x="90" y="578"/>
      <point x="123" y="626"/>
      <point x="182" y="626" type="curve" smooth="yes"/>
      <point x="243" y="626"/>
      <point x="302" y="560"/>
      <point x="337" y="560" type="curve" smooth="yes"/>
      <point x="359" y="560"/>
      <point x="372" y="574"/>
      <point x="379" y="625" type="curve" smooth="yes"/>
      <point x="380" y="634"/>
      <point x="402" y="640"/>
    </contour>
  </outline>
</glyph>
<glyph name="emdash" format="1">
  <advance width="814"/>
  <unicode hex="2014"/>
  <outline>
    <contour>
      <point x="742" y="251" type="curve" smooth="yes"/>
      <point x="746" y="236"/>
      <point x="741" y="230"/>
      <point x="740" y="213" type="curve" smooth="yes"/>
      <point x="738" y="209"/>
      <point x="733" y="201"/>
      <point x="726" y="202" type="curve" smooth="yes"/>
      <point x="99" y="202" type="line" smooth="yes"/>
      <point x="92" y="201"/>
      <point x="82" y="205"/>
      <point x="83" y="215" type="curve" smooth="yes"/>
      <point x="83" y="226"/>
      <point x="85" y="231"/>
      <point x="86" y="241" type="curve" smooth="yes"/>
      <point x="86" y="247"/>
      <point x="86" y="260"/>
      <point x="103" y="260" type="curve" smooth="yes"/>
      <point x="727" y="260" type="line" smooth="yes"/>
      <point x="734" y="258"/>
      <point x="740" y="257"/>
    </contour>
  </outline>
</glyph>
<glyph name="quotesinglbase" format="1">
  <advance width="297"/>
  <unicode hex="201A"/>
  <outline>
    <contour>
      <point x="229" y="19" type="curve" smooth="yes"/>
      <point x="229" y="-72"/>
      <point x="160" y="-130"/>
      <point x="94" y="-169" type="curve" smooth="yes"/>
      <point x="85" y="-175"/>
      <point x="74" y="-168"/>
      <point x="72" y="-160" type="curve" smooth="yes"/>
      <point x="71" y="-157"/>
      <point x="72" y="-150"/>
      <point x="75" y="-148" type="curve" smooth="yes"/>
      <point x="138" y="-105"/>
      <point x="156" y="-78"/>
      <point x="156" y="-42" type="curve" smooth="yes"/>
      <point x="156" y="-29"/>
      <point x="154" y="-20"/>
      <point x="144" y="-3" type="curve" smooth="yes"/>
      <point x="133" y="14"/>
      <point x="128" y="29"/>
      <point x="128" y="44" type="curve" smooth="yes"/>
      <point x="128" y="73"/>
      <point x="147" y="96"/>
      <point x="173" y="96" type="curve" smooth="yes"/>
      <point x="207" y="96"/>
      <point x="229" y="62"/>
    </contour>
  </outline>
</glyph>
<glyph name="quotedblleft" format="1">
  <advance width="509"/>
  <unicode hex="201C"/>
  <outline>
    <contour>
      <point x="562" y="630" type="curve" smooth="yes"/>
      <point x="498" y="589"/>
      <point x="477" y="561"/>
      <point x="477" y="527" type="curve" smooth="yes"/>
      <point x="477" y="513"/>
      <point x="480" y="505"/>
      <point x="490" y="488" type="curve" smooth="yes"/>
      <point x="500" y="472"/>
      <point x="505" y="458"/>
      <point x="505" y="443" type="curve" smooth="yes"/>
      <point x="505" y="416"/>
      <point x="487" y="393"/>
      <point x="461" y="393" type="curve" smooth="yes"/>
      <point x="427" y="393"/>
      <point x="401" y="426"/>
      <point x="401" y="467" type="curve" smooth="yes"/>
      <point x="401" y="541"/>
      <point x="458" y="612"/>
      <point x="548" y="657" type="curve" smooth="yes"/>
      <point x="560" y="663"/>
      <point x="574" y="635"/>
    </contour>
    <contour>
      <point x="366" y="631" type="curve" smooth="yes"/>
      <point x="302" y="589"/>
      <point x="281" y="561"/>
      <point x="281" y="527" type="curve" smooth="yes"/>
      <point x="281" y="513"/>
      <point x="283" y="505"/>
      <point x="293" y="488" type="curve" smooth="yes"/>
      <point x="303" y="472"/>
      <point x="308" y="458"/>
      <point x="308" y="443" type="curve" smooth="yes"/>
      <point x="308" y="416"/>
      <point x="290" y="393"/>
      <point x="265" y="393" type="curve" smooth="yes"/>
      <point x="230" y="393"/>
      <point x="204" y="426"/>
      <point x="204" y="467" type="curve" smooth="yes"/>
      <point x="204" y="541"/>
      <point x="263" y="612"/>
      <point x="352" y="657" type="curve" smooth="yes"/>
      <point x="362" y="660"/>
      <point x="377" y="640"/>
    </contour>
  </outline>
</glyph>
<glyph name="dagger" format="1">
  <advance width="487"/>
  <unicode hex="2020"/>
  <outline>
    <contour>
      <point x="501" y="432" type="curve" smooth="yes"/>
      <point x="501" y="417"/>
      <point x="496" y="400"/>
      <point x="493" y="385" type="curve" smooth="yes"/>
      <point x="488" y="357"/>
      <point x="475" y="359"/>
      <point x="453" y="362" type="curve" smooth="yes"/>
      <point x="332" y="380" type="line" smooth="yes"/>
      <point x="316" y="382"/>
      <point x="311" y="385"/>
      <point x="309" y="373" type="curve" smooth="yes"/>
      <point x="231" y="-177" type="line"/>
      <point x="225" y="-214" type="line" smooth="yes"/>
      <point x="220" y="-242"/>
      <point x="212" y="-243"/>
      <point x="169" y="-243" type="curve" smooth="yes"/>
      <point x="134" y="-243"/>
      <point x="119" y="-242"/>
      <point x="119" y="-221" type="curve" smooth="yes"/>
      <point x="119" y="-213"/>
      <point x="125" y="-192"/>
      <point x="127" y="-185" type="curve" smooth="yes"/>
      <point x="265" y="372" type="line" smooth="yes"/>
      <point x="268" y="382"/>
      <point x="264" y="383"/>
      <point x="252" y="381" type="curve" smooth="yes"/>
      <point x="120" y="362" type="line" smooth="yes"/>
      <point x="104" y="360"/>
      <point x="78" y="357"/>
      <point x="78" y="380" type="curve" smooth="yes"/>
      <point x="78" y="393"/>
      <point x="82" y="410"/>
      <point x="84" y="420" type="curve" smooth="yes"/>
      <point x="87" y="440"/>
      <point x="95" y="452"/>
      <point x="111" y="452" type="curve" smooth="yes"/>
      <point x="114" y="452"/>
      <point x="119" y="451"/>
      <point x="128" y="450" type="curve" smooth="yes"/>
      <point x="265" y="428" type="line" smooth="yes"/>
      <point x="275" y="426"/>
      <point x="277" y="429"/>
      <point x="278" y="440" type="curve" smooth="yes"/>
      <point x="298" y="656" type="line" smooth="yes"/>
      <point x="301" y="692"/>
      <point x="308" y="700"/>
      <point x="339" y="700" type="curve" smooth="yes"/>
      <point x="375" y="700"/>
      <point x="394" y="697"/>
      <point x="394" y="674" type="curve" smooth="yes"/>
      <point x="394" y="669"/>
      <point x="392" y="660"/>
      <point x="389" y="650" type="curve" smooth="yes"/>
      <point x="323" y="438" type="line" smooth="yes"/>
      <point x="320" y="427"/>
      <point x="324" y="428"/>
      <point x="333" y="429" type="curve" smooth="yes"/>
      <point x="464" y="450" type="line" smooth="yes"/>
      <point x="478" y="452"/>
      <point x="501" y="453"/>
    </contour>
  </outline>
</glyph>
<glyph name="fraction" format="1">
  <advance width="191"/>
  <unicode hex="2044"/>
  <outline>
    <contour>
      <point x="496" y="672" type="curve" smooth="yes"/>
      <point x="-129" y="-28" type="line" smooth="yes"/>
      <point x="-142" y="-38"/>
      <point x="-157" y="-41"/>
      <point x="-168" y="-40" type="curve" smooth="yes"/>
      <point x="-178" y="-38"/>
      <point x="-190" y="-31"/>
      <point x="-184" y="-22" type="curve" smooth="yes"/>
      <point x="442" y="679" type="line" smooth="yes"/>
      <point x="456" y="690"/>
      <point x="462" y="688"/>
      <point x="477" y="689" type="curve" smooth="yes"/>
      <point x="483" y="689"/>
      <point x="488" y="688"/>
      <point x="492" y="687" type="curve" smooth="yes"/>
      <point x="498" y="684"/>
      <point x="500" y="678"/>
    </contour>
  </outline>
</glyph>
